# Blender v2.93.0 OBJ File: ''
# www.blender.org
mtllib DoorBR.mtl
o Jeep-4
v -0.179859 -1.886995 -0.126638
v -0.179859 -1.986995 -2.126637
v -0.179859 -1.986995 -0.126638
v -0.179859 -1.886995 -2.126637
v -0.179859 -0.586995 -0.026637
v -0.179859 -1.886995 -0.026638
v -0.179859 -1.886995 -2.226637
v -0.179859 -0.586995 -2.226637
v -0.079859 -0.486995 -0.226637
v -0.079859 -0.586995 -2.226637
v -0.079859 -0.586995 -0.026637
v -0.079859 -0.486995 -0.626637
v -0.079859 -0.386995 -0.226637
v -0.079859 -0.386995 -0.626637
v -0.079859 -0.286995 -0.226637
v -0.079859 -0.286995 -0.626637
v -0.079859 -0.086995 -0.226637
v -0.079859 -0.086995 -2.126637
v -0.079859 0.313005 -0.026637
v -0.079859 0.313005 -0.126637
v -0.079859 0.613005 -0.226637
v -0.079859 0.713005 -0.126637
v -0.079859 0.613005 -0.326637
v -0.079859 0.713005 -0.226637
v -0.079859 1.013005 -0.326637
v -0.079859 1.113005 -0.226637
v -0.079859 1.013005 -0.426637
v -0.079859 1.113005 -0.326637
v -0.079859 1.313005 -2.126637
v -0.079859 1.413005 -0.426637
v -0.079859 1.413005 -2.026637
v -0.079859 1.313005 -2.026637
v -0.079859 1.413005 -2.126637
v -0.079859 1.413005 -2.226637
v -0.079859 1.513005 -0.326637
v -0.079859 1.513005 -2.126637
v 0.020141 -0.386995 -0.226637
v 0.020141 -0.486995 -0.626637
v 0.020141 -0.486995 -0.226637
v 0.020141 -0.386995 -0.626637
v 0.020141 0.013005 -0.326637
v 0.020141 -0.086995 -2.126637
v 0.020141 -0.086995 -0.226637
v 0.020141 0.013005 -2.026637
v 0.020141 0.513005 -0.326637
v 0.020141 0.513005 -0.426637
v 0.020141 0.613005 -0.226637
v 0.020141 0.613005 -0.326637
v 0.020141 0.913005 -0.426637
v 0.020141 0.913005 -0.526637
v 0.020141 1.013005 -0.326637
v 0.020141 1.013005 -0.426637
v 0.020141 1.213005 -1.926637
v 0.020141 1.213005 -2.026637
v 0.020141 1.313005 -0.526637
v 0.020141 1.313005 -1.926637
v 0.020141 1.313005 -2.026637
v 0.020141 1.313005 -2.126637
v 0.020141 1.413005 -0.426637
v 0.020141 1.413005 -2.026637
v 0.020141 -1.986995 -0.126638
v 0.020141 -1.986995 -2.126637
v 0.020141 -1.886995 -0.126638
v 0.020141 -1.886995 -2.126637
v 0.120141 -1.886995 -0.026638
v 0.120141 -1.886995 -2.226637
v 0.120141 -1.786995 -0.126638
v 0.120141 -1.786995 -2.126637
v 0.120141 -0.986995 -0.226637
v 0.120141 -0.986995 -2.026637
v 0.120141 -0.886995 -0.126637
v 0.120141 -0.886995 -0.226637
v 0.120141 -0.886995 -1.326637
v 0.120141 -0.886995 -1.426637
v 0.120141 -0.886995 -2.026637
v 0.120141 -0.886995 -2.126637
v 0.120141 -0.786995 -1.326637
v 0.120141 -0.786995 -1.426637
v 0.120141 -0.786995 -1.526637
v 0.120141 -0.586995 -0.226637
v 0.120141 -0.586995 -0.626637
v 0.120141 -0.586995 -1.426637
v 0.120141 -0.586995 -1.526637
v 0.120141 -0.486995 -0.226637
v 0.120141 -0.486995 -0.626637
v 0.120141 -0.286995 -0.026637
v 0.120141 -0.286995 -2.226637
v 0.120141 -0.086995 -0.226637
v 0.120141 -0.086995 -2.126637
v 0.120141 0.013005 -0.326637
v 0.120141 0.013005 -2.026637
v 0.120141 0.313005 -0.026637
v 0.120141 0.313005 -0.126637
v 0.120141 0.513005 -0.326637
v 0.120141 0.513005 -0.426637
v 0.120141 0.613005 -0.226637
v 0.120141 0.613005 -0.326637
v 0.120141 0.713005 -0.126637
v 0.120141 0.713005 -0.226637
v 0.120141 0.913005 -0.426637
v 0.120141 0.913005 -0.526637
v 0.120141 1.013005 -0.326637
v 0.120141 1.013005 -0.426637
v 0.120141 1.113005 -0.226637
v 0.120141 1.113005 -0.326637
v 0.120141 1.213005 -1.926637
v 0.120141 1.213005 -2.026637
v 0.120141 1.313005 -0.526637
v 0.120141 1.313005 -1.926637
v 0.120141 1.313005 -2.026637
v 0.120141 1.313005 -2.126637
v 0.120141 1.413005 -0.426637
v 0.120141 1.413005 -2.026637
v 0.120141 1.413005 -2.126637
v 0.120141 1.413005 -2.226637
v 0.120141 1.513005 -0.326637
v 0.120141 1.513005 -2.126637
v -0.079859 -1.886995 -0.026638
v -0.179859 -0.586995 -0.026637
v -0.179859 -1.886995 -0.026638
v -0.079859 -0.586995 -0.026637
v 0.020141 -1.886995 -0.026638
v 0.020141 -0.586995 -0.026637
v -0.079859 0.313005 -0.026637
v 0.020141 -0.286995 -0.026637
v 0.020141 0.313005 -0.026637
v 0.120141 -1.886995 -0.026638
v 0.120141 -0.286995 -0.026637
v 0.120141 0.313005 -0.026637
v -0.079859 -1.886995 -0.126638
v -0.179859 -1.886995 -0.126638
v -0.179859 -1.986995 -0.126638
v 0.020141 -1.986995 -0.126638
v 0.020141 -1.886995 -0.126638
v 0.020141 0.313005 -0.126637
v -0.079859 0.713005 -0.126637
v -0.079859 0.313005 -0.126637
v 0.020141 0.713005 -0.126637
v 0.120141 0.313005 -0.126637
v 0.120141 0.713005 -0.126637
v 0.020141 0.713005 -0.226637
v -0.079859 1.113005 -0.226637
v -0.079859 0.713005 -0.226637
v 0.020141 1.113005 -0.226637
v 0.120141 0.713005 -0.226637
v 0.120141 1.113005 -0.226637
v 0.020141 1.113005 -0.326637
v -0.079859 1.513005 -0.326637
v -0.079859 1.113005 -0.326637
v 0.020141 1.513005 -0.326637
v 0.120141 1.113005 -0.326637
v 0.120141 1.513005 -0.326637
v 0.020141 -0.486995 -0.626637
v -0.079859 -0.386995 -0.626637
v -0.079859 -0.486995 -0.626637
v 0.020141 -0.386995 -0.626637
v 0.020141 1.313005 -2.026637
v -0.079859 1.413005 -2.026637
v -0.079859 1.313005 -2.026637
v 0.020141 1.413005 -2.026637
v 0.020141 -0.086995 -2.126637
v -0.079859 1.313005 -2.126637
v -0.079859 -0.086995 -2.126637
v 0.020141 1.313005 -2.126637
v -0.079859 -0.486995 -0.226637
v -0.079859 -0.386995 -0.226637
v 0.020141 -0.486995 -0.226637
v 0.020141 -0.386995 -0.226637
v -0.079859 -0.086995 -0.226637
v -0.079859 0.613005 -0.226637
v 0.020141 -0.086995 -0.226637
v 0.020141 0.613005 -0.226637
v -0.079859 0.613005 -0.326637
v -0.079859 1.013005 -0.326637
v 0.020141 0.613005 -0.326637
v 0.020141 1.013005 -0.326637
v -0.079859 1.013005 -0.426637
v -0.079859 1.413005 -0.426637
v 0.020141 1.013005 -0.426637
v 0.020141 1.413005 -0.426637
v -0.179859 -1.986995 -2.126637
v -0.179859 -1.886995 -2.126637
v -0.079859 -1.886995 -2.126637
v 0.020141 -1.986995 -2.126637
v 0.020141 -1.886995 -2.126637
v -0.079859 1.413005 -2.126637
v -0.079859 1.513005 -2.126637
v 0.020141 1.413005 -2.126637
v 0.020141 1.513005 -2.126637
v 0.120141 1.413005 -2.126637
v 0.120141 1.513005 -2.126637
v -0.179859 -1.886995 -2.226637
v -0.179859 -0.586995 -2.226637
v -0.079859 -1.886995 -2.226637
v -0.079859 -0.586995 -2.226637
v 0.020141 -1.886995 -2.226637
v -0.079859 1.413005 -2.226637
v 0.020141 -0.586995 -2.226637
v 0.020141 -0.286995 -2.226637
v 0.020141 1.413005 -2.226637
v 0.120141 -1.886995 -2.226637
v 0.120141 -0.286995 -2.226637
v 0.120141 1.413005 -2.226637
v -0.179859 -1.986995 -2.126637
v 0.020141 -1.986995 -0.126638
v -0.179859 -1.986995 -0.126638
v 0.020141 -1.986995 -2.126637
v -0.179859 -1.886995 -0.126638
v -0.079859 -1.886995 -0.026638
v -0.179859 -1.886995 -0.026638
v -0.079859 -1.886995 -0.126638
v 0.020141 -1.886995 -0.026638
v 0.020141 -1.886995 -0.126638
v 0.120141 -1.886995 -0.026638
v 0.020141 -1.886995 -2.126637
v -0.179859 -1.886995 -2.226637
v -0.079859 -1.886995 -2.126637
v -0.179859 -1.886995 -2.126637
v -0.079859 -1.886995 -2.226637
v 0.020141 -1.886995 -2.226637
v 0.120141 -1.886995 -2.226637
v -0.079859 -0.386995 -0.626637
v 0.020141 -0.386995 -0.226637
v -0.079859 -0.386995 -0.226637
v 0.020141 -0.386995 -0.626637
v -0.079859 0.613005 -0.326637
v 0.020141 0.613005 -0.226637
v -0.079859 0.613005 -0.226637
v 0.020141 0.613005 -0.326637
v -0.079859 1.013005 -0.426637
v 0.020141 1.013005 -0.326637
v -0.079859 1.013005 -0.326637
v 0.020141 1.013005 -0.426637
v -0.079859 1.313005 -2.126637
v 0.020141 1.313005 -2.026637
v -0.079859 1.313005 -2.026637
v 0.020141 1.313005 -2.126637
v -0.079859 1.413005 -2.026637
v 0.020141 1.413005 -0.426637
v -0.079859 1.413005 -0.426637
v 0.020141 1.413005 -2.026637
v -0.179859 -0.586995 -0.026637
v -0.079859 -0.586995 -0.026637
v -0.179859 -0.586995 -2.226637
v -0.079859 -0.586995 -2.226637
v -0.079859 -0.486995 -0.226637
v 0.020141 -0.486995 -0.226637
v -0.079859 -0.486995 -0.626637
v 0.020141 -0.486995 -0.626637
v -0.079859 -0.086995 -0.226637
v 0.020141 -0.086995 -0.226637
v -0.079859 -0.086995 -2.126637
v 0.020141 -0.086995 -2.126637
v -0.079859 0.313005 -0.026637
v 0.020141 0.313005 -0.026637
v -0.079859 0.313005 -0.126637
v 0.120141 0.313005 -0.026637
v 0.020141 0.313005 -0.126637
v 0.120141 0.313005 -0.126637
v -0.079859 0.713005 -0.126637
v 0.020141 0.713005 -0.126637
v -0.079859 0.713005 -0.226637
v 0.120141 0.713005 -0.126637
v 0.020141 0.713005 -0.226637
v 0.120141 0.713005 -0.226637
v -0.079859 1.113005 -0.226637
v 0.020141 1.113005 -0.226637
v -0.079859 1.113005 -0.326637
v 0.120141 1.113005 -0.226637
v 0.020141 1.113005 -0.326637
v 0.120141 1.113005 -0.326637
v -0.079859 1.413005 -2.126637
v 0.020141 1.413005 -2.126637
v -0.079859 1.413005 -2.226637
v 0.120141 1.413005 -2.126637
v 0.020141 1.413005 -2.226637
v 0.120141 1.413005 -2.226637
v -0.079859 1.513005 -0.326637
v 0.020141 1.513005 -0.326637
v -0.079859 1.513005 -2.126637
v 0.120141 1.513005 -0.326637
v 0.020141 1.513005 -2.126637
v 0.120141 1.513005 -2.126637
vt 0.986328 0.500000
vt 0.986328 0.500000
vt 0.986328 0.500000
vt 0.986328 0.500000
vt 0.986328 0.500000
vt 0.986328 0.500000
vt 0.986328 0.500000
vt 0.986328 0.500000
vt 0.986328 0.500000
vt 0.986328 0.500000
vt 0.986328 0.500000
vt 0.986328 0.500000
vt 0.986328 0.500000
vt 0.986328 0.500000
vt 0.986328 0.500000
vt 0.994141 0.500000
vt 0.994141 0.500000
vt 0.994141 0.500000
vt 0.986328 0.500000
vt 0.994141 0.500000
vt 0.986328 0.500000
vt 0.986328 0.500000
vt 0.986328 0.500000
vt 0.986328 0.500000
vt 0.986328 0.500000
vt 0.986328 0.500000
vt 0.986328 0.500000
vt 0.986328 0.500000
vt 0.986328 0.500000
vt 0.986328 0.500000
vt 0.986328 0.500000
vt 0.986328 0.500000
vt 0.986328 0.500000
vt 0.986328 0.500000
vt 0.986328 0.500000
vt 0.986328 0.500000
vt 0.986328 0.500000
vt 0.986328 0.500000
vt 0.986328 0.500000
vt 0.986328 0.500000
vt 0.986328 0.500000
vt 0.986328 0.500000
vt 0.986328 0.500000
vt 0.986328 0.500000
vt 0.994141 0.500000
vt 0.994141 0.500000
vt 0.994141 0.500000
vt 0.994141 0.500000
vt 0.994141 0.500000
vt 0.314453 0.500000
vt 0.314453 0.500000
vt 0.314453 0.500000
vt 0.314453 0.500000
vt 0.994141 0.500000
vt 0.994141 0.500000
vt 0.994141 0.500000
vt 0.314453 0.500000
vt 0.994141 0.500000
vt 0.314453 0.500000
vt 0.994141 0.500000
vt 0.994141 0.500000
vt 0.994141 0.500000
vt 0.314453 0.500000
vt 0.994141 0.500000
vt 0.314453 0.500000
vt 0.314453 0.500000
vt 0.994141 0.500000
vt 0.994141 0.500000
vt 0.994141 0.500000
vt 0.314453 0.500000
vt 0.994141 0.500000
vt 0.994141 0.500000
vt 0.994141 0.500000
vt 0.994141 0.500000
vt 0.986328 0.500000
vt 0.986328 0.500000
vt 0.986328 0.500000
vt 0.986328 0.500000
vt 0.986328 0.500000
vt 0.986328 0.500000
vt 0.986328 0.500000
vt 0.986328 0.500000
vt 0.982422 0.500000
vt 0.982422 0.500000
vt 0.982422 0.500000
vt 0.982422 0.500000
vt 0.986328 0.500000
vt 0.982422 0.500000
vt 0.986328 0.500000
vt 0.986328 0.500000
vt 0.986328 0.500000
vt 0.982422 0.500000
vt 0.986328 0.500000
vt 0.986328 0.500000
vt 0.982422 0.500000
vt 0.986328 0.500000
vt 0.986328 0.500000
vt 0.982422 0.500000
vt 0.994141 0.500000
vt 0.994141 0.500000
vt 0.994141 0.500000
vt 0.986328 0.500000
vt 0.986328 0.500000
vt 0.994141 0.500000
vt 0.986328 0.500000
vt 0.986328 0.500000
vt 0.986328 0.500000
vt 0.994141 0.500000
vt 0.994141 0.500000
vt 0.986328 0.500000
vt 0.986328 0.500000
vt 0.994141 0.500000
vt 0.994141 0.500000
vt 0.994141 0.500000
vt 0.994141 0.500000
vt 0.986328 0.500000
vt 0.986328 0.500000
vt 0.994141 0.500000
vt 0.986328 0.500000
vt 0.986328 0.500000
vt 0.955078 0.500000
vt 0.955078 0.500000
vt 0.955078 0.500000
vt 0.955078 0.500000
vt 0.994141 0.500000
vt 0.994141 0.500000
vt 0.994141 0.500000
vt 0.994141 0.500000
vt 0.955078 0.500000
vt 0.955078 0.500000
vt 0.994141 0.500000
vt 0.314453 0.500000
vt 0.314453 0.500000
vt 0.314453 0.500000
vt 0.314453 0.500000
vt 0.955078 0.500000
vt 0.994141 0.500000
vt 0.994141 0.500000
vt 0.994141 0.500000
vt 0.955078 0.500000
vt 0.955078 0.500000
vt 0.955078 0.500000
vt 0.314453 0.500000
vt 0.994141 0.500000
vt 0.314453 0.500000
vt 0.955078 0.500000
vt 0.994141 0.500000
vt 0.994141 0.500000
vt 0.994141 0.500000
vt 0.955078 0.500000
vt 0.955078 0.500000
vt 0.955078 0.500000
vt 0.314453 0.500000
vt 0.994141 0.500000
vt 0.314453 0.500000
vt 0.314453 0.500000
vt 0.994141 0.500000
vt 0.994141 0.500000
vt 0.994141 0.500000
vt 0.314453 0.500000
vt 0.994141 0.500000
vt 0.955078 0.500000
vt 0.994141 0.500000
vt 0.994141 0.500000
vt 0.955078 0.500000
vt 0.955078 0.500000
vt 0.955078 0.500000
vt 0.994141 0.500000
vt 0.955078 0.500000
vt 0.955078 0.500000
vt 0.955078 0.500000
vt 0.955078 0.500000
vt 0.986328 0.500000
vt 0.986328 0.500000
vt 0.986328 0.500000
vt 0.986328 0.500000
vt 0.970703 0.500000
vt 0.970703 0.500000
vt 0.970703 0.500000
vt 0.986328 0.500000
vt 0.986328 0.500000
vt 0.970703 0.500000
vt 0.986328 0.500000
vt 0.986328 0.500000
vt 0.986328 0.500000
vt 0.986328 0.500000
vt 0.955078 0.500000
vt 0.955078 0.500000
vt 0.955078 0.500000
vt 0.986328 0.500000
vt 0.955078 0.500000
vt 0.986328 0.500000
vt 0.986328 0.500000
vt 0.986328 0.500000
vt 0.986328 0.500000
vt 0.986328 0.500000
vt 0.986328 0.500000
vt 0.986328 0.500000
vt 0.986328 0.500000
vt 0.986328 0.500000
vt 0.955078 0.500000
vt 0.955078 0.500000
vt 0.955078 0.500000
vt 0.955078 0.500000
vt 0.986328 0.500000
vt 0.986328 0.500000
vt 0.986328 0.500000
vt 0.986328 0.500000
vt 0.955078 0.500000
vt 0.955078 0.500000
vt 0.955078 0.500000
vt 0.955078 0.500000
vt 0.986328 0.500000
vt 0.986328 0.500000
vt 0.986328 0.500000
vt 0.986328 0.500000
vt 0.955078 0.500000
vt 0.955078 0.500000
vt 0.955078 0.500000
vt 0.955078 0.500000
vt 0.986328 0.500000
vt 0.986328 0.500000
vt 0.986328 0.500000
vt 0.986328 0.500000
vt 0.986328 0.500000
vt 0.986328 0.500000
vt 0.986328 0.500000
vt 0.986328 0.500000
vt 0.986328 0.500000
vt 0.986328 0.500000
vt 0.986328 0.500000
vt 0.986328 0.500000
vt 0.986328 0.500000
vt 0.986328 0.500000
vt 0.986328 0.500000
vt 0.986328 0.500000
vt 0.986328 0.500000
vt 0.986328 0.500000
vt 0.986328 0.500000
vt 0.986328 0.500000
vt 0.986328 0.500000
vt 0.986328 0.500000
vt 0.986328 0.500000
vt 0.986328 0.500000
vt 0.986328 0.500000
vt 0.986328 0.500000
vt 0.986328 0.500000
vt 0.986328 0.500000
vt 0.986328 0.500000
vt 0.986328 0.500000
vt 0.986328 0.500000
vt 0.986328 0.500000
vt 0.986328 0.500000
vt 0.986328 0.500000
vt 0.986328 0.500000
vt 0.986328 0.500000
vt 0.986328 0.500000
vt 0.955078 0.500000
vt 0.955078 0.500000
vt 0.955078 0.500000
vt 0.955078 0.500000
vt 0.986328 0.500000
vt 0.986328 0.500000
vt 0.986328 0.500000
vt 0.986328 0.500000
vt 0.970703 0.500000
vt 0.970703 0.500000
vt 0.970703 0.500000
vt 0.986328 0.500000
vt 0.986328 0.500000
vt 0.970703 0.500000
vt 0.986328 0.500000
vt 0.986328 0.500000
vt 0.986328 0.500000
vt 0.986328 0.500000
vt 0.955078 0.500000
vt 0.955078 0.500000
vt 0.955078 0.500000
vt 0.986328 0.500000
vt 0.955078 0.500000
vt 0.986328 0.500000
vt 0.986328 0.500000
vt 0.986328 0.500000
vt 0.986328 0.500000
vt 0.986328 0.500000
vt 0.986328 0.500000
vt 0.986328 0.500000
vt 0.970703 0.500000
vt 0.970703 0.500000
vt 0.970703 0.500000
vt 0.986328 0.500000
vt 0.986328 0.500000
vt 0.986328 0.500000
vt 0.986328 0.500000
vt 0.970703 0.500000
vt 0.986328 0.500000
vt 0.986328 0.500000
vt 0.986328 0.500000
vt 0.986328 0.500000
vt 0.970703 0.500000
vt 0.970703 0.500000
vt 0.970703 0.500000
vt 0.986328 0.500000
vt 0.986328 0.500000
vt 0.970703 0.500000
vt 0.986328 0.500000
vt 0.994141 0.500000
vt 0.994141 0.500000
vt 0.994141 0.500000
vt 0.994141 0.500000
vt 0.986328 0.500000
vt 0.986328 0.500000
vt 0.986328 0.500000
vt 0.986328 0.500000
vt 0.986328 0.500000
vt 0.986328 0.500000
vt 0.986328 0.500000
vt 0.986328 0.500000
vt 0.986328 0.500000
vt 0.986328 0.500000
vt 0.986328 0.500000
vt 0.986328 0.500000
vt 0.986328 0.500000
vt 0.986328 0.500000
vt 0.986328 0.500000
vt 0.986328 0.500000
vt 0.986328 0.500000
vt 0.986328 0.500000
vt 0.986328 0.500000
vt 0.986328 0.500000
vt 0.986328 0.500000
vt 0.986328 0.500000
vt 0.986328 0.500000
vt 0.986328 0.500000
vt 0.986328 0.500000
vt 0.986328 0.500000
vt 0.986328 0.500000
vt 0.986328 0.500000
vt 0.986328 0.500000
vt 0.986328 0.500000
vt 0.986328 0.500000
vt 0.955078 0.500000
vt 0.955078 0.500000
vt 0.955078 0.500000
vt 0.986328 0.500000
vt 0.955078 0.500000
vt 0.986328 0.500000
vt 0.986328 0.500000
vt 0.986328 0.500000
vt 0.955078 0.500000
vt 0.955078 0.500000
vt 0.955078 0.500000
vt 0.986328 0.500000
vt 0.955078 0.500000
vt 0.986328 0.500000
vt 0.986328 0.500000
vt 0.986328 0.500000
vt 0.955078 0.500000
vt 0.955078 0.500000
vt 0.955078 0.500000
vt 0.986328 0.500000
vt 0.955078 0.500000
vt 0.986328 0.500000
vt 0.986328 0.500000
vt 0.986328 0.500000
vt 0.955078 0.500000
vt 0.955078 0.500000
vt 0.955078 0.500000
vt 0.986328 0.500000
vt 0.955078 0.500000
vt 0.986328 0.500000
vt 0.986328 0.500000
vt 0.986328 0.500000
vt 0.955078 0.500000
vt 0.955078 0.500000
vt 0.955078 0.500000
vt 0.986328 0.500000
vt 0.955078 0.500000
vn -1.0000 0.0000 0.0000
vn 1.0000 0.0000 0.0000
vn 0.0000 -0.0000 1.0000
vn 0.0000 0.0000 -1.0000
vn 0.0000 -1.0000 -0.0000
vn 0.0000 1.0000 0.0000
usemtl palette.004
s 1
f 1/1/1 2/2/1 3/3/1
f 4/4/1 2/2/1 1/1/1
f 5/5/1 1/1/1 6/6/1
f 5/5/1 7/7/1 4/4/1
f 5/5/1 4/4/1 1/1/1
f 8/8/1 7/7/1 5/5/1
f 9/9/1 10/10/1 11/11/1
f 12/12/1 10/10/1 9/9/1
f 13/13/1 9/9/1 11/11/1
f 14/14/1 10/10/1 12/12/1
f 15/15/1 13/13/1 11/11/1
f 15/16/1 14/17/1 13/18/1
f 16/19/1 10/10/1 14/14/1
f 16/20/1 14/17/1 15/16/1
f 17/21/1 15/15/1 11/11/1
f 17/21/1 16/19/1 15/15/1
f 18/22/1 10/10/1 16/19/1
f 18/22/1 16/19/1 17/21/1
f 19/23/1 17/21/1 11/11/1
f 20/24/1 17/21/1 19/23/1
f 21/25/1 17/21/1 20/24/1
f 22/26/1 21/25/1 20/24/1
f 22/26/1 23/27/1 21/25/1
f 24/28/1 23/27/1 22/26/1
f 25/29/1 23/27/1 24/28/1
f 26/30/1 25/29/1 24/28/1
f 26/30/1 27/31/1 25/29/1
f 28/32/1 27/31/1 26/30/1
f 29/33/1 10/10/1 18/22/1
f 30/34/1 27/31/1 28/32/1
f 31/35/1 29/33/1 32/36/1
f 33/37/1 10/10/1 29/33/1
f 33/37/1 29/33/1 31/35/1
f 34/38/1 10/10/1 33/37/1
f 35/39/1 30/34/1 28/32/1
f 35/39/1 31/35/1 30/34/1
f 35/39/1 33/37/1 31/35/1
f 36/40/1 33/37/1 35/39/1
f 37/41/1 38/42/1 39/43/1
f 40/44/1 38/42/1 37/41/1
f 41/45/1 42/46/1 43/47/1
f 44/48/1 42/46/1 41/45/1
f 45/49/1 41/45/1 43/47/1
f 45/50/1 44/51/1 41/52/1
f 46/53/1 44/51/1 45/50/1
f 47/54/1 45/49/1 43/47/1
f 47/54/1 46/55/1 45/49/1
f 48/56/1 46/55/1 47/54/1
f 49/57/1 44/51/1 46/53/1
f 49/58/1 46/55/1 48/56/1
f 50/59/1 44/51/1 49/57/1
f 51/60/1 49/58/1 48/56/1
f 51/60/1 50/61/1 49/58/1
f 52/62/1 50/61/1 51/60/1
f 53/63/1 44/51/1 50/59/1
f 54/64/1 42/46/1 44/48/1
f 54/65/1 44/51/1 53/63/1
f 55/66/1 53/63/1 50/59/1
f 55/67/1 50/61/1 52/62/1
f 56/68/1 54/64/1 53/69/1
f 56/70/1 53/63/1 55/66/1
f 57/71/1 42/46/1 54/64/1
f 57/71/1 54/64/1 56/68/1
f 58/72/1 42/46/1 57/71/1
f 59/73/1 56/68/1 55/67/1
f 59/73/1 55/67/1 52/62/1
f 59/73/1 57/71/1 56/68/1
f 60/74/1 57/71/1 59/73/1
f 61/75/2 62/76/2 63/77/2
f 63/77/2 62/76/2 64/78/2
f 65/79/2 66/80/2 67/81/2
f 67/81/2 66/80/2 68/82/2
f 67/83/2 68/84/2 69/85/2
f 69/85/2 68/84/2 70/86/2
f 65/79/2 67/81/2 71/87/2
f 67/83/2 69/85/2 71/88/2
f 69/89/2 70/90/2 72/91/2
f 71/88/2 69/85/2 72/92/2
f 72/91/2 70/90/2 73/93/2
f 73/93/2 70/90/2 74/94/2
f 70/86/2 68/84/2 75/95/2
f 74/94/2 70/90/2 75/96/2
f 68/82/2 66/80/2 76/97/2
f 75/95/2 68/84/2 76/98/2
f 73/99/2 74/100/2 77/101/2
f 71/87/2 72/91/2 77/102/2
f 72/91/2 73/93/2 77/102/2
f 74/94/2 75/96/2 78/103/2
f 77/101/2 74/100/2 78/104/2
f 75/96/2 76/97/2 78/103/2
f 78/103/2 76/97/2 79/105/2
f 71/87/2 77/102/2 80/106/2
f 77/102/2 78/103/2 80/106/2
f 80/106/2 78/103/2 81/107/2
f 78/104/2 79/108/2 82/109/2
f 81/107/2 78/103/2 82/110/2
f 79/105/2 76/97/2 83/111/2
f 82/109/2 79/108/2 83/112/2
f 80/113/2 81/114/2 84/115/2
f 71/87/2 80/106/2 84/116/2
f 81/107/2 82/110/2 85/117/2
f 84/115/2 81/114/2 85/118/2
f 82/110/2 83/111/2 85/117/2
f 71/87/2 84/116/2 86/119/2
f 65/79/2 71/87/2 86/119/2
f 84/116/2 85/117/2 86/119/2
f 76/97/2 66/80/2 87/120/2
f 86/119/2 85/117/2 87/120/2
f 85/117/2 83/111/2 87/120/2
f 83/111/2 76/97/2 87/120/2
f 86/121/2 87/122/2 88/123/2
f 88/123/2 87/122/2 89/124/2
f 88/125/2 89/126/2 90/127/2
f 90/127/2 89/126/2 91/128/2
f 86/121/2 88/123/2 92/129/2
f 92/129/2 88/123/2 93/130/2
f 88/125/2 90/127/2 94/131/2
f 90/132/2 91/133/2 94/134/2
f 94/134/2 91/133/2 95/135/2
f 93/130/2 88/123/2 96/136/2
f 88/125/2 94/131/2 96/137/2
f 94/131/2 95/138/2 96/137/2
f 96/137/2 95/138/2 97/139/2
f 93/130/2 96/136/2 98/140/2
f 96/136/2 97/141/2 98/140/2
f 98/140/2 97/141/2 99/142/2
f 95/135/2 91/133/2 100/143/2
f 97/139/2 95/138/2 100/144/2
f 100/143/2 91/133/2 101/145/2
f 99/142/2 97/141/2 102/146/2
f 97/139/2 100/144/2 102/147/2
f 100/144/2 101/148/2 102/147/2
f 102/147/2 101/148/2 103/149/2
f 99/142/2 102/146/2 104/150/2
f 102/146/2 103/151/2 104/150/2
f 104/150/2 103/151/2 105/152/2
f 101/145/2 91/133/2 106/153/2
f 91/128/2 89/126/2 107/154/2
f 106/153/2 91/133/2 107/155/2
f 101/145/2 106/153/2 108/156/2
f 103/149/2 101/148/2 108/157/2
f 106/158/2 107/154/2 109/159/2
f 108/156/2 106/153/2 109/160/2
f 107/154/2 89/126/2 110/161/2
f 109/159/2 107/154/2 110/161/2
f 89/124/2 87/122/2 111/162/2
f 110/161/2 89/126/2 111/163/2
f 108/157/2 109/159/2 112/164/2
f 109/159/2 110/161/2 112/164/2
f 105/152/2 103/151/2 112/165/2
f 103/149/2 108/157/2 112/164/2
f 110/166/2 111/162/2 113/167/2
f 112/164/2 110/161/2 113/168/2
f 111/162/2 87/122/2 114/169/2
f 113/167/2 111/162/2 114/169/2
f 114/169/2 87/122/2 115/170/2
f 112/165/2 113/167/2 116/171/2
f 105/152/2 112/165/2 116/171/2
f 113/167/2 114/169/2 116/171/2
f 116/171/2 114/169/2 117/172/2
f 118/173/3 119/174/3 120/175/3
f 121/176/3 119/174/3 118/173/3
f 122/177/3 121/178/3 118/179/3
f 123/180/3 124/181/3 121/176/3
f 123/182/3 121/178/3 122/177/3
f 125/183/3 124/181/3 123/180/3
f 126/184/3 124/181/3 125/183/3
f 127/185/3 123/180/3 122/186/3
f 127/185/3 125/183/3 123/180/3
f 128/187/3 126/188/3 125/189/3
f 128/190/3 125/183/3 127/185/3
f 129/191/3 126/188/3 128/187/3
f 130/192/3 131/193/3 132/194/3
f 133/195/3 130/192/3 132/194/3
f 134/196/3 130/192/3 133/195/3
f 135/197/3 136/198/3 137/199/3
f 138/200/3 136/198/3 135/197/3
f 139/201/3 138/202/3 135/203/3
f 140/204/3 138/202/3 139/201/3
f 141/205/3 142/206/3 143/207/3
f 144/208/3 142/206/3 141/205/3
f 145/209/3 144/210/3 141/211/3
f 146/212/3 144/210/3 145/209/3
f 147/213/3 148/214/3 149/215/3
f 150/216/3 148/214/3 147/213/3
f 151/217/3 150/218/3 147/219/3
f 152/220/3 150/218/3 151/217/3
f 153/221/3 154/222/3 155/223/3
f 156/224/3 154/222/3 153/221/3
f 157/225/3 158/226/3 159/227/3
f 160/228/3 158/226/3 157/225/3
f 161/229/3 162/230/3 163/231/3
f 164/232/3 162/230/3 161/229/3
f 165/233/4 166/234/4 167/235/4
f 167/235/4 166/234/4 168/236/4
f 169/237/4 170/238/4 171/239/4
f 171/239/4 170/238/4 172/240/4
f 173/241/4 174/242/4 175/243/4
f 175/243/4 174/242/4 176/244/4
f 177/245/4 178/246/4 179/247/4
f 179/247/4 178/246/4 180/248/4
f 181/249/4 182/250/4 183/251/4
f 181/249/4 183/251/4 184/252/4
f 184/252/4 183/251/4 185/253/4
f 186/254/4 187/255/4 188/256/4
f 188/256/4 187/255/4 189/257/4
f 188/258/4 189/259/4 190/260/4
f 190/260/4 189/259/4 191/261/4
f 192/262/4 193/263/4 194/264/4
f 194/264/4 193/263/4 195/265/4
f 194/266/4 195/267/4 196/268/4
f 195/265/4 197/269/4 198/270/4
f 196/268/4 195/267/4 198/271/4
f 198/270/4 197/269/4 199/272/4
f 199/272/4 197/269/4 200/273/4
f 196/274/4 198/270/4 201/275/4
f 198/270/4 199/272/4 201/275/4
f 199/276/4 200/277/4 202/278/4
f 201/275/4 199/272/4 202/279/4
f 202/278/4 200/277/4 203/280/4
f 204/281/5 205/282/5 206/283/5
f 207/284/5 205/282/5 204/281/5
f 208/285/5 209/286/5 210/287/5
f 211/288/5 212/289/5 209/290/5
f 211/291/5 209/286/5 208/285/5
f 213/292/5 214/293/5 212/294/5
f 213/295/5 212/289/5 211/288/5
f 215/296/5 214/293/5 213/292/5
f 216/297/5 217/298/5 218/299/5
f 219/300/5 215/301/5 217/302/5
f 219/303/5 217/298/5 216/297/5
f 220/304/5 214/293/5 215/296/5
f 220/305/5 215/301/5 219/300/5
f 221/306/5 214/293/5 220/304/5
f 222/307/5 223/308/5 224/309/5
f 225/310/5 223/308/5 222/307/5
f 226/311/5 227/312/5 228/313/5
f 229/314/5 227/312/5 226/311/5
f 230/315/5 231/316/5 232/317/5
f 233/318/5 231/316/5 230/315/5
f 234/319/5 235/320/5 236/321/5
f 237/322/5 235/320/5 234/319/5
f 238/323/5 239/324/5 240/325/5
f 241/326/5 239/324/5 238/323/5
f 242/327/6 243/328/6 244/329/6
f 244/329/6 243/328/6 245/330/6
f 246/331/6 247/332/6 248/333/6
f 248/333/6 247/332/6 249/334/6
f 250/335/6 251/336/6 252/337/6
f 252/337/6 251/336/6 253/338/6
f 254/339/6 255/340/6 256/341/6
f 255/342/6 257/343/6 258/344/6
f 256/341/6 255/340/6 258/345/6
f 258/344/6 257/343/6 259/346/6
f 260/347/6 261/348/6 262/349/6
f 261/350/6 263/351/6 264/352/6
f 262/349/6 261/348/6 264/353/6
f 264/352/6 263/351/6 265/354/6
f 266/355/6 267/356/6 268/357/6
f 267/358/6 269/359/6 270/360/6
f 268/357/6 267/356/6 270/361/6
f 270/360/6 269/359/6 271/362/6
f 272/363/6 273/364/6 274/365/6
f 273/366/6 275/367/6 276/368/6
f 274/365/6 273/364/6 276/369/6
f 276/368/6 275/367/6 277/370/6
f 278/371/6 279/372/6 280/373/6
f 279/374/6 281/375/6 282/376/6
f 280/373/6 279/372/6 282/377/6
f 282/376/6 281/375/6 283/378/6
