# Blender v2.93.0 OBJ File: ''
# www.blender.org
mtllib hood.mtl
o Jeep-0
v -2.400000 0.102534 -2.303015
v -2.400000 0.002534 -2.603014
v -2.400000 0.002533 -0.003014
v -2.400000 0.102534 -2.603014
v -2.400000 0.202534 -1.603014
v -2.400000 0.202534 -2.303015
v -2.400000 0.302533 -0.003014
v -2.400000 0.302534 -1.603014
v -2.000000 0.202534 -2.303015
v -2.000000 0.102534 -2.503014
v -2.000000 0.102534 -2.303015
v -2.000000 0.202534 -2.503014
v -2.000000 0.302534 -1.603014
v -2.000000 0.202534 -1.603014
v -2.000000 0.302534 -2.303015
v -2.000000 0.402534 -0.003014
v -2.000000 0.302533 -0.003014
v -2.000000 0.402534 -1.603014
v 1.300000 0.202534 -2.303015
v 1.300000 0.102534 -2.503014
v 1.300000 0.102534 -2.303015
v 1.300000 0.202534 -2.503014
v 1.300000 0.302534 -1.603014
v 1.300000 0.202534 -1.603014
v 1.300000 0.302534 -2.303015
v 1.300000 0.402534 -0.003014
v 1.300000 0.302533 -0.003014
v 1.300000 0.402534 -1.603014
v -1.300000 0.102534 -2.303015
v -1.300000 0.102534 -2.503014
v -1.300000 0.202534 -2.303015
v -1.300000 0.202534 -2.503014
v -1.300000 0.202534 -1.603014
v -1.300000 0.302534 -1.603014
v -1.300000 0.302534 -2.303015
v -1.300000 0.302533 -0.003014
v -1.300000 0.402534 -0.003014
v -1.300000 0.402534 -1.603014
v 2.000000 0.102534 -2.303015
v 2.000000 0.102534 -2.503014
v 2.000000 0.202534 -2.303015
v 2.000000 0.202534 -2.503014
v 2.000000 0.202534 -1.603014
v 2.000000 0.302534 -1.603014
v 2.000000 0.302534 -2.303015
v 2.000000 0.302533 -0.003014
v 2.000000 0.402534 -0.003014
v 2.000000 0.402534 -1.603014
v 2.400000 0.002533 -0.003014
v 2.400000 0.002534 -2.603014
v 2.400000 0.102534 -2.303015
v 2.400000 0.102534 -2.603014
v 2.400000 0.202534 -1.603014
v 2.400000 0.202534 -2.303015
v 2.400000 0.302533 -0.003014
v 2.400000 0.302534 -1.603014
v -2.300000 0.002533 -0.003014
v -2.400000 0.302533 -0.003014
v -2.400000 0.002533 -0.003014
v -2.300000 0.202533 -0.003014
v -2.000000 0.302533 -0.003014
v -1.300000 0.302533 -0.003014
v -2.000000 0.402534 -0.003014
v -1.300000 0.402534 -0.003014
v 1.300000 0.302533 -0.003014
v 2.000000 0.302533 -0.003014
v 1.300000 0.402534 -0.003014
v 2.000000 0.402534 -0.003014
v 2.300000 0.002533 -0.003014
v 2.300000 0.202533 -0.003014
v 2.400000 0.002533 -0.003014
v 2.400000 0.302533 -0.003014
v -2.400000 0.202534 -1.603014
v -2.400000 0.302534 -1.603014
v -2.000000 0.202534 -1.603014
v -2.000000 0.302534 -1.603014
v -2.000000 0.402534 -1.603014
v -1.300000 0.302534 -1.603014
v -1.300000 0.402534 -1.603014
v -1.300000 0.202534 -1.603014
v 1.300000 0.202534 -1.603014
v 1.300000 0.302534 -1.603014
v 1.300000 0.402534 -1.603014
v 2.000000 0.302534 -1.603014
v 2.000000 0.402534 -1.603014
v 2.000000 0.202534 -1.603014
v 2.400000 0.202534 -1.603014
v 2.400000 0.302534 -1.603014
v -2.400000 0.102534 -2.303015
v -2.400000 0.202534 -2.303015
v -2.000000 0.102534 -2.303015
v -2.000000 0.202534 -2.303015
v -2.000000 0.302534 -2.303015
v -1.300000 0.202534 -2.303015
v -1.300000 0.302534 -2.303015
v -1.300000 0.102534 -2.303015
v 1.300000 0.102534 -2.303015
v 1.300000 0.202534 -2.303015
v 1.300000 0.302534 -2.303015
v 2.000000 0.202534 -2.303015
v 2.000000 0.302534 -2.303015
v 2.000000 0.102534 -2.303015
v 2.400000 0.102534 -2.303015
v 2.400000 0.202534 -2.303015
v -2.000000 0.102534 -2.503014
v -2.000000 0.202534 -2.503014
v -1.300000 0.102534 -2.503014
v -1.300000 0.202534 -2.503014
v 1.300000 0.102534 -2.503014
v 1.300000 0.202534 -2.503014
v 2.000000 0.102534 -2.503014
v 2.000000 0.202534 -2.503014
v -2.400000 0.002534 -2.603014
v -2.400000 0.102534 -2.603014
v 2.400000 0.002534 -2.603014
v 2.400000 0.102534 -2.603014
v -2.300000 0.002534 -1.003014
v -2.300000 0.002533 -0.003014
v -2.400000 0.002533 -0.003014
v 2.300000 0.002533 -0.003014
v 2.300000 0.002534 -1.003014
v 2.400000 0.002533 -0.003014
v -2.400000 0.002534 -2.603014
v 2.400000 0.002534 -2.603014
v -2.400000 0.102534 -2.303015
v -2.000000 0.102534 -2.303015
v -2.000000 0.102534 -2.503014
v -1.300000 0.102534 -2.303015
v 1.300000 0.102534 -2.303015
v -1.300000 0.102534 -2.503014
v 1.300000 0.102534 -2.503014
v 2.000000 0.102534 -2.303015
v 2.400000 0.102534 -2.303015
v 2.000000 0.102534 -2.503014
v -2.400000 0.102534 -2.603014
v 2.400000 0.102534 -2.603014
v -2.400000 0.202534 -1.603014
v -2.000000 0.202534 -1.603014
v -2.400000 0.202534 -2.303015
v -2.000000 0.202534 -2.303015
v -1.300000 0.202534 -1.603014
v 1.300000 0.202534 -1.603014
v -1.300000 0.202534 -2.303015
v 1.300000 0.202534 -2.303015
v 2.000000 0.202534 -1.603014
v 2.400000 0.202534 -1.603014
v 2.000000 0.202534 -2.303015
v 2.400000 0.202534 -2.303015
v -2.000000 0.202534 -2.503014
v -1.300000 0.202534 -2.503014
v 1.300000 0.202534 -2.503014
v 2.000000 0.202534 -2.503014
v -2.400000 0.302533 -0.003014
v -2.000000 0.302533 -0.003014
v -2.400000 0.302534 -1.603014
v -2.000000 0.302534 -1.603014
v -1.300000 0.302533 -0.003014
v 1.300000 0.302533 -0.003014
v -1.300000 0.302534 -1.603014
v 1.300000 0.302534 -1.603014
v 2.000000 0.302533 -0.003014
v 2.400000 0.302533 -0.003014
v 2.000000 0.302534 -1.603014
v 2.400000 0.302534 -1.603014
v -2.000000 0.302534 -2.303015
v -1.300000 0.302534 -2.303015
v 1.300000 0.302534 -2.303015
v 2.000000 0.302534 -2.303015
v -2.000000 0.402534 -0.003014
v -1.300000 0.402534 -0.003014
v -2.000000 0.402534 -1.603014
v -1.300000 0.402534 -1.603014
v 1.300000 0.402534 -0.003014
v 2.000000 0.402534 -0.003014
v 1.300000 0.402534 -1.603014
v 2.000000 0.402534 -1.603014
vt 0.986328 0.500000
vt 0.986328 0.500000
vt 0.986328 0.500000
vt 0.986328 0.500000
vt 0.986328 0.500000
vt 0.986328 0.500000
vt 0.986328 0.500000
vt 0.986328 0.500000
vt 0.986328 0.500000
vt 0.986328 0.500000
vt 0.986328 0.500000
vt 0.986328 0.500000
vt 0.986328 0.500000
vt 0.986328 0.500000
vt 0.986328 0.500000
vt 0.986328 0.500000
vt 0.986328 0.500000
vt 0.986328 0.500000
vt 0.986328 0.500000
vt 0.986328 0.500000
vt 0.986328 0.500000
vt 0.986328 0.500000
vt 0.986328 0.500000
vt 0.986328 0.500000
vt 0.986328 0.500000
vt 0.986328 0.500000
vt 0.986328 0.500000
vt 0.986328 0.500000
vt 0.986328 0.500000
vt 0.986328 0.500000
vt 0.986328 0.500000
vt 0.986328 0.500000
vt 0.986328 0.500000
vt 0.986328 0.500000
vt 0.986328 0.500000
vt 0.986328 0.500000
vt 0.986328 0.500000
vt 0.986328 0.500000
vt 0.986328 0.500000
vt 0.986328 0.500000
vt 0.986328 0.500000
vt 0.986328 0.500000
vt 0.986328 0.500000
vt 0.986328 0.500000
vt 0.986328 0.500000
vt 0.986328 0.500000
vt 0.986328 0.500000
vt 0.986328 0.500000
vt 0.986328 0.500000
vt 0.986328 0.500000
vt 0.986328 0.500000
vt 0.986328 0.500000
vt 0.986328 0.500000
vt 0.986328 0.500000
vt 0.986328 0.500000
vt 0.986328 0.500000
vt 0.986328 0.500000
vt 0.986328 0.500000
vt 0.986328 0.500000
vt 0.986328 0.500000
vt 0.986328 0.500000
vt 0.986328 0.500000
vt 0.986328 0.500000
vt 0.986328 0.500000
vt 0.986328 0.500000
vt 0.986328 0.500000
vt 0.986328 0.500000
vt 0.986328 0.500000
vt 0.970703 0.500000
vt 0.970703 0.500000
vt 0.970703 0.500000
vt 0.986328 0.500000
vt 0.970703 0.500000
vt 0.986328 0.500000
vt 0.986328 0.500000
vt 0.986328 0.500000
vt 0.986328 0.500000
vt 0.986328 0.500000
vt 0.986328 0.500000
vt 0.986328 0.500000
vt 0.986328 0.500000
vt 0.986328 0.500000
vt 0.986328 0.500000
vt 0.986328 0.500000
vt 0.986328 0.500000
vt 0.986328 0.500000
vt 0.986328 0.500000
vt 0.986328 0.500000
vt 0.986328 0.500000
vt 0.986328 0.500000
vt 0.986328 0.500000
vt 0.986328 0.500000
vt 0.986328 0.500000
vt 0.986328 0.500000
vt 0.986328 0.500000
vt 0.986328 0.500000
vt 0.986328 0.500000
vt 0.986328 0.500000
vt 0.986328 0.500000
vt 0.986328 0.500000
vt 0.986328 0.500000
vt 0.986328 0.500000
vt 0.986328 0.500000
vt 0.986328 0.500000
vt 0.986328 0.500000
vt 0.986328 0.500000
vt 0.986328 0.500000
vt 0.986328 0.500000
vt 0.986328 0.500000
vt 0.986328 0.500000
vt 0.986328 0.500000
vt 0.986328 0.500000
vt 0.986328 0.500000
vt 0.986328 0.500000
vt 0.986328 0.500000
vt 0.986328 0.500000
vt 0.986328 0.500000
vt 0.986328 0.500000
vt 0.986328 0.500000
vt 0.986328 0.500000
vt 0.986328 0.500000
vt 0.986328 0.500000
vt 0.986328 0.500000
vt 0.970703 0.500000
vt 0.970703 0.500000
vt 0.970703 0.500000
vt 0.986328 0.500000
vt 0.986328 0.500000
vt 0.986328 0.500000
vt 0.970703 0.500000
vt 0.986328 0.500000
vt 0.986328 0.500000
vt 0.986328 0.500000
vt 0.986328 0.500000
vt 0.986328 0.500000
vt 0.986328 0.500000
vt 0.986328 0.500000
vt 0.986328 0.500000
vt 0.986328 0.500000
vt 0.986328 0.500000
vt 0.986328 0.500000
vt 0.986328 0.500000
vt 0.986328 0.500000
vt 0.986328 0.500000
vt 0.986328 0.500000
vt 0.986328 0.500000
vt 0.986328 0.500000
vt 0.986328 0.500000
vt 0.986328 0.500000
vt 0.986328 0.500000
vt 0.986328 0.500000
vt 0.986328 0.500000
vt 0.986328 0.500000
vt 0.986328 0.500000
vt 0.986328 0.500000
vt 0.986328 0.500000
vt 0.986328 0.500000
vt 0.986328 0.500000
vt 0.986328 0.500000
vt 0.986328 0.500000
vt 0.986328 0.500000
vt 0.986328 0.500000
vt 0.986328 0.500000
vt 0.986328 0.500000
vt 0.986328 0.500000
vt 0.986328 0.500000
vt 0.986328 0.500000
vt 0.986328 0.500000
vt 0.986328 0.500000
vt 0.986328 0.500000
vt 0.986328 0.500000
vt 0.986328 0.500000
vt 0.986328 0.500000
vt 0.986328 0.500000
vt 0.986328 0.500000
vt 0.986328 0.500000
vt 0.986328 0.500000
vt 0.986328 0.500000
vt 0.986328 0.500000
vt 0.986328 0.500000
vt 0.986328 0.500000
vt 0.986328 0.500000
vt 0.986328 0.500000
vt 0.986328 0.500000
vn -1.0000 0.0000 0.0000
vn 1.0000 0.0000 0.0000
vn 0.0000 0.0000 1.0000
vn 0.0000 0.0000 -1.0000
vn 0.0000 -1.0000 -0.0000
vn -0.0000 1.0000 0.0000
usemtl palette
s 1
f 1/1/1 2/2/1 3/3/1
f 4/4/1 2/2/1 1/1/1
f 5/5/1 1/1/1 3/3/1
f 6/6/1 1/1/1 5/5/1
f 7/7/1 5/5/1 3/3/1
f 8/8/1 5/5/1 7/7/1
f 9/9/1 10/10/1 11/11/1
f 12/12/1 10/10/1 9/9/1
f 13/13/1 9/9/1 14/14/1
f 15/15/1 9/9/1 13/13/1
f 16/16/1 13/13/1 17/17/1
f 18/18/1 13/13/1 16/16/1
f 19/19/1 20/20/1 21/21/1
f 22/22/1 20/20/1 19/19/1
f 23/23/1 19/19/1 24/24/1
f 25/25/1 19/19/1 23/23/1
f 26/26/1 23/23/1 27/27/1
f 28/28/1 23/23/1 26/26/1
f 29/29/2 30/30/2 31/31/2
f 31/31/2 30/30/2 32/32/2
f 33/33/2 31/31/2 34/34/2
f 34/34/2 31/31/2 35/35/2
f 36/36/2 34/34/2 37/37/2
f 37/37/2 34/34/2 38/38/2
f 39/39/2 40/40/2 41/41/2
f 41/41/2 40/40/2 42/42/2
f 43/43/2 41/41/2 44/44/2
f 44/44/2 41/41/2 45/45/2
f 46/46/2 44/44/2 47/47/2
f 47/47/2 44/44/2 48/48/2
f 49/49/2 50/50/2 51/51/2
f 51/51/2 50/50/2 52/52/2
f 49/49/2 51/51/2 53/53/2
f 53/53/2 51/51/2 54/54/2
f 49/49/2 53/53/2 55/55/2
f 55/55/2 53/53/2 56/56/2
f 57/57/3 58/58/3 59/59/3
f 60/60/3 58/58/3 57/57/3
f 61/61/3 58/58/3 60/60/3
f 62/62/3 61/61/3 60/60/3
f 62/62/3 63/63/3 61/61/3
f 64/64/3 63/63/3 62/62/3
f 65/65/3 62/62/3 60/60/3
f 66/66/3 65/65/3 60/60/3
f 66/66/3 67/67/3 65/65/3
f 68/68/3 67/67/3 66/66/3
f 69/69/3 60/70/3 57/71/3
f 70/72/3 66/66/3 60/60/3
f 70/73/3 60/70/3 69/69/3
f 71/74/3 70/72/3 69/75/3
f 72/76/3 66/66/3 70/72/3
f 72/76/3 70/72/3 71/74/3
f 73/77/4 74/78/4 75/79/4
f 75/79/4 74/78/4 76/80/4
f 76/80/4 77/81/4 78/82/4
f 78/82/4 77/81/4 79/83/4
f 80/84/4 78/82/4 81/85/4
f 81/85/4 78/82/4 82/86/4
f 82/86/4 83/87/4 84/88/4
f 84/88/4 83/87/4 85/89/4
f 86/90/4 84/88/4 87/91/4
f 87/91/4 84/88/4 88/92/4
f 89/93/4 90/94/4 91/95/4
f 91/95/4 90/94/4 92/96/4
f 92/96/4 93/97/4 94/98/4
f 94/98/4 93/97/4 95/99/4
f 96/100/4 94/98/4 97/101/4
f 97/101/4 94/98/4 98/102/4
f 98/102/4 99/103/4 100/104/4
f 100/104/4 99/103/4 101/105/4
f 102/106/4 100/104/4 103/107/4
f 103/107/4 100/104/4 104/108/4
f 105/109/4 106/110/4 107/111/4
f 107/111/4 106/110/4 108/112/4
f 109/113/4 110/114/4 111/115/4
f 111/115/4 110/114/4 112/116/4
f 113/117/4 114/118/4 115/119/4
f 115/119/4 114/118/4 116/120/4
f 117/121/5 118/122/5 119/123/5
f 117/124/5 120/125/5 118/126/5
f 121/127/5 122/128/5 120/129/5
f 121/130/5 120/125/5 117/124/5
f 123/131/5 117/121/5 119/123/5
f 123/131/5 121/127/5 117/121/5
f 124/132/5 122/128/5 121/127/5
f 124/132/5 121/127/5 123/131/5
f 125/133/6 126/134/6 127/135/6
f 128/136/6 129/137/6 130/138/6
f 130/138/6 129/137/6 131/139/6
f 132/140/6 133/141/6 134/142/6
f 130/138/6 131/139/6 135/143/6
f 131/139/6 134/142/6 135/143/6
f 125/133/6 127/135/6 135/143/6
f 127/135/6 130/138/6 135/143/6
f 134/142/6 133/141/6 136/144/6
f 135/143/6 134/142/6 136/144/6
f 137/145/6 138/146/6 139/147/6
f 139/147/6 138/146/6 140/148/6
f 141/149/6 142/150/6 143/151/6
f 143/151/6 142/150/6 144/152/6
f 145/153/6 146/154/6 147/155/6
f 147/155/6 146/154/6 148/156/6
f 140/148/6 143/151/6 149/157/6
f 149/157/6 143/151/6 150/158/6
f 144/152/6 147/155/6 151/159/6
f 151/159/6 147/155/6 152/160/6
f 153/161/6 154/162/6 155/163/6
f 155/163/6 154/162/6 156/164/6
f 157/165/6 158/166/6 159/167/6
f 159/167/6 158/166/6 160/168/6
f 161/169/6 162/170/6 163/171/6
f 163/171/6 162/170/6 164/172/6
f 156/164/6 159/167/6 165/173/6
f 165/173/6 159/167/6 166/174/6
f 160/168/6 163/171/6 167/175/6
f 167/175/6 163/171/6 168/176/6
f 169/177/6 170/178/6 171/179/6
f 171/179/6 170/178/6 172/180/6
f 173/181/6 174/182/6 175/183/6
f 175/183/6 174/182/6 176/184/6
