# Blender v2.93.0 OBJ File: 'Jeep.blend'
# www.blender.org
mtllib WindowBody.mtl
o WindowBody_JeepV2-3
v -2.300000 -0.273914 4.194410
v -2.300000 -0.673914 2.694410
v -2.300000 -0.673914 4.194410
v -2.300000 -0.273914 4.094409
v -2.300000 -0.173914 2.694410
v -2.300000 0.126086 4.094409
v -2.300000 -0.173914 2.594410
v -2.300000 0.126086 3.994410
v -2.300000 0.226087 2.594410
v -2.300000 0.626086 3.994410
v -2.300000 0.226087 2.494410
v -2.300000 0.626087 2.494410
v -2.100000 -0.573913 -3.005590
v -2.100000 -0.773913 -3.105590
v -2.100000 -0.773913 -3.005590
v -2.100000 -0.573913 -3.105590
v -2.100000 -0.373912 -2.905590
v -2.100000 -0.573913 -2.905590
v -2.100000 -0.373912 -3.005590
v -2.100000 -0.173913 -2.805590
v -2.100000 -0.373912 -2.805590
v -2.100000 -0.173913 -2.905590
v -2.100000 0.026087 -2.705590
v -2.100000 -0.173913 -2.705590
v -2.100000 0.026087 -2.805590
v -2.100000 0.226087 -2.605590
v -2.100000 0.026087 -2.605590
v -2.100000 0.226087 -2.705590
v -2.100000 0.426087 -2.505590
v -2.100000 0.226087 -2.505590
v -2.100000 0.426087 -2.605590
v -2.100000 0.626087 -2.405590
v -2.100000 0.426087 -2.405590
v -2.100000 0.626087 -2.505590
v -2.100000 0.726087 -2.305590
v -2.100000 0.626087 -2.305590
v -2.100000 0.726087 -2.405590
v 2.200000 -0.273914 4.194410
v 2.200000 -0.673914 2.694410
v 2.200000 -0.673914 4.194410
v 2.200000 -0.273914 4.094409
v 2.200000 -0.173914 2.694410
v 2.200000 0.126086 4.094409
v 2.200000 -0.173914 2.594410
v 2.200000 0.126086 3.994410
v 2.200000 0.226087 2.594410
v 2.200000 0.626086 3.994410
v 2.200000 0.226087 2.494410
v 2.200000 0.626087 2.494410
v -2.200000 -0.673914 4.194410
v -2.200000 -0.673914 2.694410
v -2.200000 -0.273914 4.194410
v -2.200000 -0.273914 4.094409
v -2.200000 -0.173914 2.694410
v -2.200000 0.126086 4.094409
v -2.200000 -0.173914 2.594410
v -2.200000 0.126086 3.994410
v -2.200000 0.226087 2.594410
v -2.200000 0.626086 3.994410
v -2.200000 0.226087 2.494410
v -2.200000 0.626087 2.494410
v 2.100000 -0.773913 -3.005590
v 2.100000 -0.773913 -3.105590
v 2.100000 -0.573913 -3.005590
v 2.100000 -0.573913 -3.105590
v 2.100000 -0.573913 -2.905590
v 2.100000 -0.373912 -2.905590
v 2.100000 -0.373912 -3.005590
v 2.100000 -0.373912 -2.805590
v 2.100000 -0.173913 -2.805590
v 2.100000 -0.173913 -2.905590
v 2.100000 -0.173913 -2.705590
v 2.100000 0.026087 -2.705590
v 2.100000 0.026087 -2.805590
v 2.100000 0.026087 -2.605590
v 2.100000 0.226087 -2.605590
v 2.100000 0.226087 -2.705590
v 2.100000 0.226087 -2.505590
v 2.100000 0.426087 -2.505590
v 2.100000 0.426087 -2.605590
v 2.100000 0.426087 -2.405590
v 2.100000 0.626087 -2.405590
v 2.100000 0.626087 -2.505590
v 2.100000 0.626087 -2.305590
v 2.100000 0.726087 -2.305590
v 2.100000 0.726087 -2.405590
v 2.300000 -0.673914 4.194410
v 2.300000 -0.673914 2.694410
v 2.300000 -0.273914 4.194410
v 2.300000 -0.273914 4.094409
v 2.300000 -0.173914 2.694410
v 2.300000 0.126086 4.094409
v 2.300000 -0.173914 2.594410
v 2.300000 0.126086 3.994410
v 2.300000 0.226087 2.594410
v 2.300000 0.626086 3.994410
v 2.300000 0.226087 2.494410
v 2.300000 0.626087 2.494410
v -2.200000 -0.673914 4.194410
v -2.300000 -0.273914 4.194410
v -2.300000 -0.673914 4.194410
v -2.200000 -0.273914 4.194410
v 2.300000 -0.673914 4.194410
v 2.200000 -0.273914 4.194410
v 2.200000 -0.673914 4.194410
v 2.300000 -0.273914 4.194410
v -2.200000 -0.273914 4.094409
v -2.300000 0.126086 4.094409
v -2.300000 -0.273914 4.094409
v -2.200000 0.126086 4.094409
v 2.300000 -0.273914 4.094409
v 2.200000 0.126086 4.094409
v 2.200000 -0.273914 4.094409
v 2.300000 0.126086 4.094409
v -2.200000 0.126086 3.994410
v -2.300000 0.626086 3.994410
v -2.300000 0.126086 3.994410
v -2.200000 0.626086 3.994410
v 2.300000 0.126086 3.994410
v 2.200000 0.626086 3.994410
v 2.200000 0.126086 3.994410
v 2.300000 0.626086 3.994410
v 2.100000 0.626087 -2.305590
v -2.100000 0.726087 -2.305590
v -2.100000 0.626087 -2.305590
v 2.100000 0.726087 -2.305590
v 2.100000 0.426087 -2.405590
v -2.100000 0.626087 -2.405590
v -2.100000 0.426087 -2.405590
v 2.100000 0.626087 -2.405590
v 2.100000 0.226087 -2.505590
v -2.100000 0.426087 -2.505590
v -2.100000 0.226087 -2.505590
v 2.100000 0.426087 -2.505590
v 2.100000 0.026087 -2.605590
v -2.100000 0.226087 -2.605590
v -2.100000 0.026087 -2.605590
v 2.100000 0.226087 -2.605590
v 2.100000 -0.173913 -2.705590
v -2.100000 0.026087 -2.705590
v -2.100000 -0.173913 -2.705590
v 2.100000 0.026087 -2.705590
v 2.100000 -0.373912 -2.805590
v -2.100000 -0.173913 -2.805590
v -2.100000 -0.373912 -2.805590
v 2.100000 -0.173913 -2.805590
v 2.100000 -0.573913 -2.905590
v -2.100000 -0.373912 -2.905590
v -2.100000 -0.573913 -2.905590
v 2.100000 -0.373912 -2.905590
v 2.100000 -0.773913 -3.005590
v -2.100000 -0.573913 -3.005590
v -2.100000 -0.773913 -3.005590
v 2.100000 -0.573913 -3.005590
v -2.300000 -0.673914 2.694410
v -2.300000 -0.173914 2.694410
v -2.200000 -0.673914 2.694410
v -2.200000 -0.173914 2.694410
v 2.200000 -0.673914 2.694410
v 2.200000 -0.173914 2.694410
v 2.300000 -0.673914 2.694410
v 2.300000 -0.173914 2.694410
v -2.300000 -0.173914 2.594410
v -2.300000 0.226087 2.594410
v -2.200000 -0.173914 2.594410
v -2.200000 0.226087 2.594410
v 2.200000 -0.173914 2.594410
v 2.200000 0.226087 2.594410
v 2.300000 -0.173914 2.594410
v 2.300000 0.226087 2.594410
v -2.300000 0.226087 2.494410
v -2.300000 0.626087 2.494410
v -2.200000 0.226087 2.494410
v -2.200000 0.626087 2.494410
v 2.200000 0.226087 2.494410
v 2.200000 0.626087 2.494410
v 2.300000 0.226087 2.494410
v 2.300000 0.626087 2.494410
v -2.100000 0.626087 -2.405590
v -2.100000 0.726087 -2.405590
v 2.100000 0.626087 -2.405590
v 2.100000 0.726087 -2.405590
v -2.100000 0.426087 -2.505590
v -2.100000 0.626087 -2.505590
v 2.100000 0.426087 -2.505590
v 2.100000 0.626087 -2.505590
v -2.100000 0.226087 -2.605590
v -2.100000 0.426087 -2.605590
v 2.100000 0.226087 -2.605590
v 2.100000 0.426087 -2.605590
v -2.100000 0.026087 -2.705590
v -2.100000 0.226087 -2.705590
v 2.100000 0.026087 -2.705590
v 2.100000 0.226087 -2.705590
v -2.100000 -0.173913 -2.805590
v -2.100000 0.026087 -2.805590
v 2.100000 -0.173913 -2.805590
v 2.100000 0.026087 -2.805590
v -2.100000 -0.373912 -2.905590
v -2.100000 -0.173913 -2.905590
v 2.100000 -0.373912 -2.905590
v 2.100000 -0.173913 -2.905590
v -2.100000 -0.573913 -3.005590
v -2.100000 -0.373912 -3.005590
v 2.100000 -0.573913 -3.005590
v 2.100000 -0.373912 -3.005590
v -2.100000 -0.773913 -3.105590
v -2.100000 -0.573913 -3.105590
v 2.100000 -0.773913 -3.105590
v 2.100000 -0.573913 -3.105590
v -2.100000 -0.773913 -3.105590
v 2.100000 -0.773913 -3.005590
v -2.100000 -0.773913 -3.005590
v 2.100000 -0.773913 -3.105590
v -2.300000 -0.673914 2.694410
v -2.200000 -0.673914 4.194410
v -2.300000 -0.673914 4.194410
v -2.200000 -0.673914 2.694410
v 2.200000 -0.673914 2.694410
v 2.300000 -0.673914 4.194410
v 2.200000 -0.673914 4.194410
v 2.300000 -0.673914 2.694410
v -2.100000 -0.573913 -3.005590
v 2.100000 -0.573913 -2.905590
v -2.100000 -0.573913 -2.905590
v 2.100000 -0.573913 -3.005590
v -2.100000 -0.373912 -2.905590
v 2.100000 -0.373912 -2.805590
v -2.100000 -0.373912 -2.805590
v 2.100000 -0.373912 -2.905590
v -2.300000 -0.173914 2.594410
v -2.200000 -0.173914 2.694410
v -2.300000 -0.173914 2.694410
v -2.200000 -0.173914 2.594410
v 2.200000 -0.173914 2.594410
v 2.300000 -0.173914 2.694410
v 2.200000 -0.173914 2.694410
v 2.300000 -0.173914 2.594410
v -2.100000 -0.173913 -2.805590
v 2.100000 -0.173913 -2.705590
v -2.100000 -0.173913 -2.705590
v 2.100000 -0.173913 -2.805590
v -2.100000 0.026087 -2.705590
v 2.100000 0.026087 -2.605590
v -2.100000 0.026087 -2.605590
v 2.100000 0.026087 -2.705590
v -2.300000 0.226087 2.494410
v -2.200000 0.226087 2.594410
v -2.300000 0.226087 2.594410
v -2.200000 0.226087 2.494410
v 2.200000 0.226087 2.494410
v 2.300000 0.226087 2.594410
v 2.200000 0.226087 2.594410
v 2.300000 0.226087 2.494410
v -2.100000 0.226087 -2.605590
v 2.100000 0.226087 -2.505590
v -2.100000 0.226087 -2.505590
v 2.100000 0.226087 -2.605590
v -2.100000 0.426087 -2.505590
v 2.100000 0.426087 -2.405590
v -2.100000 0.426087 -2.405590
v 2.100000 0.426087 -2.505590
v -2.100000 0.626087 -2.405590
v 2.100000 0.626087 -2.305590
v -2.100000 0.626087 -2.305590
v 2.100000 0.626087 -2.405590
v -2.100000 -0.573913 -3.005590
v 2.100000 -0.573913 -3.005590
v -2.100000 -0.573913 -3.105590
v 2.100000 -0.573913 -3.105590
v -2.100000 -0.373912 -2.905590
v 2.100000 -0.373912 -2.905590
v -2.100000 -0.373912 -3.005590
v 2.100000 -0.373912 -3.005590
v -2.300000 -0.273914 4.194410
v -2.200000 -0.273914 4.194410
v -2.300000 -0.273914 4.094409
v -2.200000 -0.273914 4.094409
v 2.200000 -0.273914 4.194410
v 2.300000 -0.273914 4.194410
v 2.200000 -0.273914 4.094409
v 2.300000 -0.273914 4.094409
v -2.100000 -0.173913 -2.805590
v 2.100000 -0.173913 -2.805590
v -2.100000 -0.173913 -2.905590
v 2.100000 -0.173913 -2.905590
v -2.100000 0.026087 -2.705590
v 2.100000 0.026087 -2.705590
v -2.100000 0.026087 -2.805590
v 2.100000 0.026087 -2.805590
v -2.300000 0.126086 4.094409
v -2.200000 0.126086 4.094409
v -2.300000 0.126086 3.994410
v -2.200000 0.126086 3.994410
v 2.200000 0.126086 4.094409
v 2.300000 0.126086 4.094409
v 2.200000 0.126086 3.994410
v 2.300000 0.126086 3.994410
v -2.100000 0.226087 -2.605590
v 2.100000 0.226087 -2.605590
v -2.100000 0.226087 -2.705590
v 2.100000 0.226087 -2.705590
v -2.100000 0.426087 -2.505590
v 2.100000 0.426087 -2.505590
v -2.100000 0.426087 -2.605590
v 2.100000 0.426087 -2.605590
v -2.300000 0.626086 3.994410
v -2.200000 0.626086 3.994410
v -2.300000 0.626087 2.494410
v -2.200000 0.626087 2.494410
v 2.200000 0.626086 3.994410
v 2.300000 0.626086 3.994410
v 2.200000 0.626087 2.494410
v 2.300000 0.626087 2.494410
v -2.100000 0.626087 -2.405590
v 2.100000 0.626087 -2.405590
v -2.100000 0.626087 -2.505590
v 2.100000 0.626087 -2.505590
v -2.100000 0.726087 -2.305590
v 2.100000 0.726087 -2.305590
v -2.100000 0.726087 -2.405590
v 2.100000 0.726087 -2.405590
vt 0.314453 0.500000
vt 0.314453 0.500000
vt 0.314453 0.500000
vt 0.314453 0.500000
vt 0.314453 0.500000
vt 0.314453 0.500000
vt 0.314453 0.500000
vt 0.314453 0.500000
vt 0.314453 0.500000
vt 0.314453 0.500000
vt 0.314453 0.500000
vt 0.314453 0.500000
vt 0.314453 0.500000
vt 0.314453 0.500000
vt 0.314453 0.500000
vt 0.314453 0.500000
vt 0.314453 0.500000
vt 0.314453 0.500000
vt 0.314453 0.500000
vt 0.314453 0.500000
vt 0.314453 0.500000
vt 0.314453 0.500000
vt 0.314453 0.500000
vt 0.314453 0.500000
vt 0.314453 0.500000
vt 0.314453 0.500000
vt 0.314453 0.500000
vt 0.314453 0.500000
vt 0.314453 0.500000
vt 0.314453 0.500000
vt 0.314453 0.500000
vt 0.314453 0.500000
vt 0.314453 0.500000
vt 0.314453 0.500000
vt 0.314453 0.500000
vt 0.314453 0.500000
vt 0.314453 0.500000
vt 0.314453 0.500000
vt 0.314453 0.500000
vt 0.314453 0.500000
vt 0.314453 0.500000
vt 0.314453 0.500000
vt 0.314453 0.500000
vt 0.314453 0.500000
vt 0.314453 0.500000
vt 0.314453 0.500000
vt 0.314453 0.500000
vt 0.314453 0.500000
vt 0.314453 0.500000
vt 0.314453 0.500000
vt 0.314453 0.500000
vt 0.314453 0.500000
vt 0.314453 0.500000
vt 0.314453 0.500000
vt 0.314453 0.500000
vt 0.314453 0.500000
vt 0.314453 0.500000
vt 0.314453 0.500000
vt 0.314453 0.500000
vt 0.314453 0.500000
vt 0.314453 0.500000
vt 0.314453 0.500000
vt 0.314453 0.500000
vt 0.314453 0.500000
vt 0.314453 0.500000
vt 0.314453 0.500000
vt 0.314453 0.500000
vt 0.314453 0.500000
vt 0.314453 0.500000
vt 0.314453 0.500000
vt 0.314453 0.500000
vt 0.314453 0.500000
vt 0.314453 0.500000
vt 0.314453 0.500000
vt 0.314453 0.500000
vt 0.314453 0.500000
vt 0.314453 0.500000
vt 0.314453 0.500000
vt 0.314453 0.500000
vt 0.314453 0.500000
vt 0.314453 0.500000
vt 0.314453 0.500000
vt 0.314453 0.500000
vt 0.314453 0.500000
vt 0.314453 0.500000
vt 0.314453 0.500000
vt 0.314453 0.500000
vt 0.314453 0.500000
vt 0.314453 0.500000
vt 0.314453 0.500000
vt 0.314453 0.500000
vt 0.314453 0.500000
vt 0.314453 0.500000
vt 0.314453 0.500000
vt 0.314453 0.500000
vt 0.314453 0.500000
vt 0.314453 0.500000
vt 0.314453 0.500000
vt 0.314453 0.500000
vt 0.314453 0.500000
vt 0.314453 0.500000
vt 0.314453 0.500000
vt 0.314453 0.500000
vt 0.314453 0.500000
vt 0.314453 0.500000
vt 0.314453 0.500000
vt 0.314453 0.500000
vt 0.314453 0.500000
vt 0.314453 0.500000
vt 0.314453 0.500000
vt 0.314453 0.500000
vt 0.314453 0.500000
vt 0.314453 0.500000
vt 0.314453 0.500000
vt 0.314453 0.500000
vt 0.314453 0.500000
vt 0.314453 0.500000
vt 0.314453 0.500000
vt 0.314453 0.500000
vt 0.314453 0.500000
vt 0.314453 0.500000
vt 0.314453 0.500000
vt 0.314453 0.500000
vt 0.314453 0.500000
vt 0.314453 0.500000
vt 0.314453 0.500000
vt 0.314453 0.500000
vt 0.314453 0.500000
vt 0.314453 0.500000
vt 0.314453 0.500000
vt 0.314453 0.500000
vt 0.314453 0.500000
vt 0.314453 0.500000
vt 0.314453 0.500000
vt 0.314453 0.500000
vt 0.314453 0.500000
vt 0.314453 0.500000
vt 0.314453 0.500000
vt 0.314453 0.500000
vt 0.314453 0.500000
vt 0.314453 0.500000
vt 0.314453 0.500000
vt 0.314453 0.500000
vt 0.314453 0.500000
vt 0.314453 0.500000
vt 0.314453 0.500000
vt 0.314453 0.500000
vt 0.314453 0.500000
vt 0.314453 0.500000
vt 0.314453 0.500000
vt 0.314453 0.500000
vt 0.314453 0.500000
vt 0.314453 0.500000
vt 0.314453 0.500000
vt 0.314453 0.500000
vt 0.314453 0.500000
vt 0.314453 0.500000
vt 0.314453 0.500000
vt 0.314453 0.500000
vt 0.314453 0.500000
vt 0.314453 0.500000
vt 0.314453 0.500000
vt 0.314453 0.500000
vt 0.314453 0.500000
vt 0.314453 0.500000
vt 0.314453 0.500000
vt 0.314453 0.500000
vt 0.314453 0.500000
vt 0.314453 0.500000
vt 0.314453 0.500000
vt 0.314453 0.500000
vt 0.314453 0.500000
vt 0.314453 0.500000
vt 0.314453 0.500000
vt 0.314453 0.500000
vt 0.314453 0.500000
vt 0.314453 0.500000
vt 0.314453 0.500000
vt 0.314453 0.500000
vt 0.314453 0.500000
vt 0.314453 0.500000
vt 0.314453 0.500000
vt 0.314453 0.500000
vt 0.314453 0.500000
vt 0.314453 0.500000
vt 0.314453 0.500000
vt 0.314453 0.500000
vt 0.314453 0.500000
vt 0.314453 0.500000
vt 0.314453 0.500000
vt 0.314453 0.500000
vt 0.314453 0.500000
vt 0.314453 0.500000
vt 0.314453 0.500000
vt 0.314453 0.500000
vt 0.314453 0.500000
vt 0.314453 0.500000
vt 0.314453 0.500000
vt 0.314453 0.500000
vt 0.314453 0.500000
vt 0.314453 0.500000
vt 0.314453 0.500000
vt 0.314453 0.500000
vt 0.314453 0.500000
vt 0.314453 0.500000
vt 0.314453 0.500000
vt 0.314453 0.500000
vt 0.314453 0.500000
vt 0.314453 0.500000
vt 0.314453 0.500000
vt 0.314453 0.500000
vt 0.314453 0.500000
vt 0.314453 0.500000
vt 0.314453 0.500000
vt 0.314453 0.500000
vt 0.314453 0.500000
vt 0.314453 0.500000
vt 0.314453 0.500000
vt 0.314453 0.500000
vt 0.314453 0.500000
vt 0.314453 0.500000
vt 0.314453 0.500000
vt 0.314453 0.500000
vt 0.314453 0.500000
vt 0.314453 0.500000
vt 0.314453 0.500000
vt 0.314453 0.500000
vt 0.314453 0.500000
vt 0.314453 0.500000
vt 0.314453 0.500000
vt 0.314453 0.500000
vt 0.314453 0.500000
vt 0.314453 0.500000
vt 0.314453 0.500000
vt 0.314453 0.500000
vt 0.314453 0.500000
vt 0.314453 0.500000
vt 0.314453 0.500000
vt 0.314453 0.500000
vt 0.314453 0.500000
vt 0.314453 0.500000
vt 0.314453 0.500000
vt 0.314453 0.500000
vt 0.314453 0.500000
vt 0.314453 0.500000
vt 0.314453 0.500000
vt 0.314453 0.500000
vt 0.314453 0.500000
vt 0.314453 0.500000
vt 0.314453 0.500000
vt 0.314453 0.500000
vt 0.314453 0.500000
vt 0.314453 0.500000
vt 0.314453 0.500000
vt 0.314453 0.500000
vt 0.314453 0.500000
vt 0.314453 0.500000
vt 0.314453 0.500000
vt 0.314453 0.500000
vt 0.314453 0.500000
vt 0.314453 0.500000
vt 0.314453 0.500000
vt 0.314453 0.500000
vt 0.314453 0.500000
vt 0.314453 0.500000
vt 0.314453 0.500000
vt 0.314453 0.500000
vt 0.314453 0.500000
vt 0.314453 0.500000
vt 0.314453 0.500000
vt 0.314453 0.500000
vt 0.314453 0.500000
vt 0.314453 0.500000
vt 0.314453 0.500000
vt 0.314453 0.500000
vt 0.314453 0.500000
vt 0.314453 0.500000
vt 0.314453 0.500000
vt 0.314453 0.500000
vt 0.314453 0.500000
vt 0.314453 0.500000
vt 0.314453 0.500000
vt 0.314453 0.500000
vt 0.314453 0.500000
vt 0.314453 0.500000
vt 0.314453 0.500000
vt 0.314453 0.500000
vt 0.314453 0.500000
vt 0.314453 0.500000
vt 0.314453 0.500000
vt 0.314453 0.500000
vt 0.314453 0.500000
vt 0.314453 0.500000
vt 0.314453 0.500000
vt 0.314453 0.500000
vt 0.314453 0.500000
vt 0.314453 0.500000
vt 0.314453 0.500000
vt 0.314453 0.500000
vt 0.314453 0.500000
vt 0.314453 0.500000
vt 0.314453 0.500000
vt 0.314453 0.500000
vt 0.314453 0.500000
vt 0.314453 0.500000
vt 0.314453 0.500000
vt 0.314453 0.500000
vt 0.314453 0.500000
vt 0.314453 0.500000
vt 0.314453 0.500000
vt 0.314453 0.500000
vt 0.314453 0.500000
vt 0.314453 0.500000
vt 0.314453 0.500000
vt 0.314453 0.500000
vt 0.314453 0.500000
vt 0.314453 0.500000
vt 0.314453 0.500000
vt 0.314453 0.500000
vt 0.314453 0.500000
vt 0.314453 0.500000
vt 0.314453 0.500000
vn -1.0000 -0.0000 0.0000
vn 1.0000 0.0000 0.0000
vn 0.0000 0.0000 1.0000
vn 0.0000 0.0000 -1.0000
vn 0.0000 -1.0000 0.0000
vn 0.0000 1.0000 0.0000
usemtl palette.004
s 1
f 1/1/1 2/2/1 3/3/1
f 4/4/1 2/2/1 1/1/1
f 5/5/1 2/2/1 4/4/1
f 6/6/1 5/5/1 4/4/1
f 6/6/1 7/7/1 5/5/1
f 8/8/1 7/7/1 6/6/1
f 9/9/1 7/7/1 8/8/1
f 10/10/1 9/9/1 8/8/1
f 10/10/1 11/11/1 9/9/1
f 12/12/1 11/11/1 10/10/1
f 13/13/1 14/14/1 15/15/1
f 16/16/1 14/14/1 13/13/1
f 17/17/1 13/13/1 18/18/1
f 19/19/1 13/13/1 17/17/1
f 20/20/1 17/17/1 21/21/1
f 22/22/1 17/17/1 20/20/1
f 23/23/1 20/20/1 24/24/1
f 25/25/1 20/20/1 23/23/1
f 26/26/1 23/23/1 27/27/1
f 28/28/1 23/23/1 26/26/1
f 29/29/1 26/26/1 30/30/1
f 31/31/1 26/26/1 29/29/1
f 32/32/1 29/29/1 33/33/1
f 34/34/1 29/29/1 32/32/1
f 35/35/1 32/32/1 36/36/1
f 37/37/1 32/32/1 35/35/1
f 38/38/1 39/39/1 40/40/1
f 41/41/1 39/39/1 38/38/1
f 42/42/1 39/39/1 41/41/1
f 43/43/1 42/42/1 41/41/1
f 43/43/1 44/44/1 42/42/1
f 45/45/1 44/44/1 43/43/1
f 46/46/1 44/44/1 45/45/1
f 47/47/1 46/46/1 45/45/1
f 47/47/1 48/48/1 46/46/1
f 49/49/1 48/48/1 47/47/1
f 50/50/2 51/51/2 52/52/2
f 52/52/2 51/51/2 53/53/2
f 53/53/2 51/51/2 54/54/2
f 53/53/2 54/54/2 55/55/2
f 54/54/2 56/56/2 55/55/2
f 55/55/2 56/56/2 57/57/2
f 57/57/2 56/56/2 58/58/2
f 57/57/2 58/58/2 59/59/2
f 58/58/2 60/60/2 59/59/2
f 59/59/2 60/60/2 61/61/2
f 62/62/2 63/63/2 64/64/2
f 64/64/2 63/63/2 65/65/2
f 66/66/2 64/64/2 67/67/2
f 67/67/2 64/64/2 68/68/2
f 69/69/2 67/67/2 70/70/2
f 70/70/2 67/67/2 71/71/2
f 72/72/2 70/70/2 73/73/2
f 73/73/2 70/70/2 74/74/2
f 75/75/2 73/73/2 76/76/2
f 76/76/2 73/73/2 77/77/2
f 78/78/2 76/76/2 79/79/2
f 79/79/2 76/76/2 80/80/2
f 81/81/2 79/79/2 82/82/2
f 82/82/2 79/79/2 83/83/2
f 84/84/2 82/82/2 85/85/2
f 85/85/2 82/82/2 86/86/2
f 87/87/2 88/88/2 89/89/2
f 89/89/2 88/88/2 90/90/2
f 90/90/2 88/88/2 91/91/2
f 90/90/2 91/91/2 92/92/2
f 91/91/2 93/93/2 92/92/2
f 92/92/2 93/93/2 94/94/2
f 94/94/2 93/93/2 95/95/2
f 94/94/2 95/95/2 96/96/2
f 95/95/2 97/97/2 96/96/2
f 96/96/2 97/97/2 98/98/2
f 99/99/3 100/100/3 101/101/3
f 102/102/3 100/100/3 99/99/3
f 103/103/3 104/104/3 105/105/3
f 106/106/3 104/104/3 103/103/3
f 107/107/3 108/108/3 109/109/3
f 110/110/3 108/108/3 107/107/3
f 111/111/3 112/112/3 113/113/3
f 114/114/3 112/112/3 111/111/3
f 115/115/3 116/116/3 117/117/3
f 118/118/3 116/116/3 115/115/3
f 119/119/3 120/120/3 121/121/3
f 122/122/3 120/120/3 119/119/3
f 123/123/3 124/124/3 125/125/3
f 126/126/3 124/124/3 123/123/3
f 127/127/3 128/128/3 129/129/3
f 130/130/3 128/128/3 127/127/3
f 131/131/3 132/132/3 133/133/3
f 134/134/3 132/132/3 131/131/3
f 135/135/3 136/136/3 137/137/3
f 138/138/3 136/136/3 135/135/3
f 139/139/3 140/140/3 141/141/3
f 142/142/3 140/140/3 139/139/3
f 143/143/3 144/144/3 145/145/3
f 146/146/3 144/144/3 143/143/3
f 147/147/3 148/148/3 149/149/3
f 150/150/3 148/148/3 147/147/3
f 151/151/3 152/152/3 153/153/3
f 154/154/3 152/152/3 151/151/3
f 155/155/4 156/156/4 157/157/4
f 157/157/4 156/156/4 158/158/4
f 159/159/4 160/160/4 161/161/4
f 161/161/4 160/160/4 162/162/4
f 163/163/4 164/164/4 165/165/4
f 165/165/4 164/164/4 166/166/4
f 167/167/4 168/168/4 169/169/4
f 169/169/4 168/168/4 170/170/4
f 171/171/4 172/172/4 173/173/4
f 173/173/4 172/172/4 174/174/4
f 175/175/4 176/176/4 177/177/4
f 177/177/4 176/176/4 178/178/4
f 179/179/4 180/180/4 181/181/4
f 181/181/4 180/180/4 182/182/4
f 183/183/4 184/184/4 185/185/4
f 185/185/4 184/184/4 186/186/4
f 187/187/4 188/188/4 189/189/4
f 189/189/4 188/188/4 190/190/4
f 191/191/4 192/192/4 193/193/4
f 193/193/4 192/192/4 194/194/4
f 195/195/4 196/196/4 197/197/4
f 197/197/4 196/196/4 198/198/4
f 199/199/4 200/200/4 201/201/4
f 201/201/4 200/200/4 202/202/4
f 203/203/4 204/204/4 205/205/4
f 205/205/4 204/204/4 206/206/4
f 207/207/4 208/208/4 209/209/4
f 209/209/4 208/208/4 210/210/4
f 211/211/5 212/212/5 213/213/5
f 214/214/5 212/212/5 211/211/5
f 215/215/5 216/216/5 217/217/5
f 218/218/5 216/216/5 215/215/5
f 219/219/5 220/220/5 221/221/5
f 222/222/5 220/220/5 219/219/5
f 223/223/5 224/224/5 225/225/5
f 226/226/5 224/224/5 223/223/5
f 227/227/5 228/228/5 229/229/5
f 230/230/5 228/228/5 227/227/5
f 231/231/5 232/232/5 233/233/5
f 234/234/5 232/232/5 231/231/5
f 235/235/5 236/236/5 237/237/5
f 238/238/5 236/236/5 235/235/5
f 239/239/5 240/240/5 241/241/5
f 242/242/5 240/240/5 239/239/5
f 243/243/5 244/244/5 245/245/5
f 246/246/5 244/244/5 243/243/5
f 247/247/5 248/248/5 249/249/5
f 250/250/5 248/248/5 247/247/5
f 251/251/5 252/252/5 253/253/5
f 254/254/5 252/252/5 251/251/5
f 255/255/5 256/256/5 257/257/5
f 258/258/5 256/256/5 255/255/5
f 259/259/5 260/260/5 261/261/5
f 262/262/5 260/260/5 259/259/5
f 263/263/5 264/264/5 265/265/5
f 266/266/5 264/264/5 263/263/5
f 267/267/6 268/268/6 269/269/6
f 269/269/6 268/268/6 270/270/6
f 271/271/6 272/272/6 273/273/6
f 273/273/6 272/272/6 274/274/6
f 275/275/6 276/276/6 277/277/6
f 277/277/6 276/276/6 278/278/6
f 279/279/6 280/280/6 281/281/6
f 281/281/6 280/280/6 282/282/6
f 283/283/6 284/284/6 285/285/6
f 285/285/6 284/284/6 286/286/6
f 287/287/6 288/288/6 289/289/6
f 289/289/6 288/288/6 290/290/6
f 291/291/6 292/292/6 293/293/6
f 293/293/6 292/292/6 294/294/6
f 295/295/6 296/296/6 297/297/6
f 297/297/6 296/296/6 298/298/6
f 299/299/6 300/300/6 301/301/6
f 301/301/6 300/300/6 302/302/6
f 303/303/6 304/304/6 305/305/6
f 305/305/6 304/304/6 306/306/6
f 307/307/6 308/308/6 309/309/6
f 309/309/6 308/308/6 310/310/6
f 311/311/6 312/312/6 313/313/6
f 313/313/6 312/312/6 314/314/6
f 315/315/6 316/316/6 317/317/6
f 317/317/6 316/316/6 318/318/6
f 319/319/6 320/320/6 321/321/6
f 321/321/6 320/320/6 322/322/6
