# Blender v2.93.0 OBJ File: 'Jeep.blend'
# www.blender.org
mtllib WindowDoorF.mtl
o WindowDoorF_JeepV2-1
v -0.050000 -0.388636 -0.815404
v -0.050000 -0.588636 -0.915405
v -0.050000 -0.588636 -0.315404
v -0.050000 -0.388635 -0.915404
v -0.050000 -0.188635 -0.715404
v -0.050000 -0.188635 -0.815404
v -0.050000 0.011365 -0.615404
v -0.050000 0.011365 -0.715404
v -0.050000 0.211365 -0.515404
v -0.050000 0.211365 -0.615404
v -0.050000 0.411364 -0.415404
v -0.050000 0.411364 -0.515404
v -0.050000 0.611364 0.684596
v -0.050000 -0.588636 -0.215404
v -0.050000 -0.588636 0.684596
v -0.050000 0.611364 0.584596
v -0.050000 0.611365 -0.315404
v -0.050000 0.611365 -0.415404
v -0.050000 0.711364 0.584596
v -0.050000 0.711365 -0.215404
v 0.050000 -0.588636 -0.315404
v 0.050000 -0.588636 -0.915405
v 0.050000 -0.388636 -0.815404
v 0.050000 -0.388635 -0.915404
v 0.050000 -0.188635 -0.715404
v 0.050000 -0.188635 -0.815404
v 0.050000 0.011365 -0.615404
v 0.050000 0.011365 -0.715404
v 0.050000 0.211365 -0.515404
v 0.050000 0.211365 -0.615404
v 0.050000 0.411364 -0.415404
v 0.050000 0.411364 -0.515404
v 0.050000 -0.588636 0.684596
v 0.050000 -0.588636 -0.215404
v 0.050000 0.611364 0.684596
v 0.050000 0.611364 0.584596
v 0.050000 0.611365 -0.315404
v 0.050000 0.611365 -0.415404
v 0.050000 0.711364 0.584596
v 0.050000 0.711365 -0.215404
v 0.050000 -0.588636 0.684596
v -0.050000 0.611364 0.684596
v -0.050000 -0.588636 0.684596
v 0.050000 0.611364 0.684596
v 0.050000 0.611364 0.584596
v -0.050000 0.711364 0.584596
v -0.050000 0.611364 0.584596
v 0.050000 0.711364 0.584596
v 0.050000 -0.588636 -0.315404
v -0.050000 0.611365 -0.315404
v -0.050000 -0.588636 -0.315404
v 0.050000 0.611365 -0.315404
v -0.050000 -0.588636 -0.215404
v -0.050000 0.711365 -0.215404
v 0.050000 -0.588636 -0.215404
v 0.050000 0.711365 -0.215404
v -0.050000 0.411364 -0.415404
v -0.050000 0.611365 -0.415404
v 0.050000 0.411364 -0.415404
v 0.050000 0.611365 -0.415404
v -0.050000 0.211365 -0.515404
v -0.050000 0.411364 -0.515404
v 0.050000 0.211365 -0.515404
v 0.050000 0.411364 -0.515404
v -0.050000 0.011365 -0.615404
v -0.050000 0.211365 -0.615404
v 0.050000 0.011365 -0.615404
v 0.050000 0.211365 -0.615404
v -0.050000 -0.188635 -0.715404
v -0.050000 0.011365 -0.715404
v 0.050000 -0.188635 -0.715404
v 0.050000 0.011365 -0.715404
v -0.050000 -0.388636 -0.815404
v -0.050000 -0.188635 -0.815404
v 0.050000 -0.388636 -0.815404
v 0.050000 -0.188635 -0.815404
v -0.050000 -0.588636 -0.915405
v -0.050000 -0.388635 -0.915404
v 0.050000 -0.588636 -0.915405
v 0.050000 -0.388635 -0.915404
v -0.050000 -0.588636 -0.215404
v 0.050000 -0.588636 0.684596
v -0.050000 -0.588636 0.684596
v 0.050000 -0.588636 -0.215404
v -0.050000 -0.588636 -0.915405
v 0.050000 -0.588636 -0.315404
v -0.050000 -0.588636 -0.315404
v 0.050000 -0.588636 -0.915405
v -0.050000 -0.388636 -0.815404
v 0.050000 -0.388636 -0.815404
v -0.050000 -0.388635 -0.915404
v 0.050000 -0.388635 -0.915404
v -0.050000 -0.188635 -0.715404
v 0.050000 -0.188635 -0.715404
v -0.050000 -0.188635 -0.815404
v 0.050000 -0.188635 -0.815404
v -0.050000 0.011365 -0.615404
v 0.050000 0.011365 -0.615404
v -0.050000 0.011365 -0.715404
v 0.050000 0.011365 -0.715404
v -0.050000 0.211365 -0.515404
v 0.050000 0.211365 -0.515404
v -0.050000 0.211365 -0.615404
v 0.050000 0.211365 -0.615404
v -0.050000 0.411364 -0.415404
v 0.050000 0.411364 -0.415404
v -0.050000 0.411364 -0.515404
v 0.050000 0.411364 -0.515404
v -0.050000 0.611364 0.684596
v 0.050000 0.611364 0.684596
v -0.050000 0.611364 0.584596
v 0.050000 0.611364 0.584596
v -0.050000 0.611365 -0.315404
v 0.050000 0.611365 -0.315404
v -0.050000 0.611365 -0.415404
v 0.050000 0.611365 -0.415404
v -0.050000 0.711364 0.584596
v 0.050000 0.711364 0.584596
v -0.050000 0.711365 -0.215404
v 0.050000 0.711365 -0.215404
vt 0.314453 0.500000
vt 0.314453 0.500000
vt 0.314453 0.500000
vt 0.314453 0.500000
vt 0.314453 0.500000
vt 0.314453 0.500000
vt 0.314453 0.500000
vt 0.314453 0.500000
vt 0.314453 0.500000
vt 0.314453 0.500000
vt 0.314453 0.500000
vt 0.314453 0.500000
vt 0.314453 0.500000
vt 0.314453 0.500000
vt 0.314453 0.500000
vt 0.314453 0.500000
vt 0.314453 0.500000
vt 0.314453 0.500000
vt 0.314453 0.500000
vt 0.314453 0.500000
vt 0.314453 0.500000
vt 0.314453 0.500000
vt 0.314453 0.500000
vt 0.314453 0.500000
vt 0.314453 0.500000
vt 0.314453 0.500000
vt 0.314453 0.500000
vt 0.314453 0.500000
vt 0.314453 0.500000
vt 0.314453 0.500000
vt 0.314453 0.500000
vt 0.314453 0.500000
vt 0.314453 0.500000
vt 0.314453 0.500000
vt 0.314453 0.500000
vt 0.314453 0.500000
vt 0.314453 0.500000
vt 0.314453 0.500000
vt 0.314453 0.500000
vt 0.314453 0.500000
vt 0.314453 0.500000
vt 0.314453 0.500000
vt 0.314453 0.500000
vt 0.314453 0.500000
vt 0.314453 0.500000
vt 0.314453 0.500000
vt 0.314453 0.500000
vt 0.314453 0.500000
vt 0.314453 0.500000
vt 0.314453 0.500000
vt 0.314453 0.500000
vt 0.314453 0.500000
vt 0.314453 0.500000
vt 0.314453 0.500000
vt 0.314453 0.500000
vt 0.314453 0.500000
vt 0.314453 0.500000
vt 0.314453 0.500000
vt 0.314453 0.500000
vt 0.314453 0.500000
vt 0.314453 0.500000
vt 0.314453 0.500000
vt 0.314453 0.500000
vt 0.314453 0.500000
vt 0.314453 0.500000
vt 0.314453 0.500000
vt 0.314453 0.500000
vt 0.314453 0.500000
vt 0.314453 0.500000
vt 0.314453 0.500000
vt 0.314453 0.500000
vt 0.314453 0.500000
vt 0.314453 0.500000
vt 0.314453 0.500000
vt 0.314453 0.500000
vt 0.314453 0.500000
vt 0.314453 0.500000
vt 0.314453 0.500000
vt 0.314453 0.500000
vt 0.314453 0.500000
vt 0.314453 0.500000
vt 0.314453 0.500000
vt 0.314453 0.500000
vt 0.314453 0.500000
vt 0.314453 0.500000
vt 0.314453 0.500000
vt 0.314453 0.500000
vt 0.314453 0.500000
vt 0.314453 0.500000
vt 0.314453 0.500000
vt 0.314453 0.500000
vt 0.314453 0.500000
vt 0.314453 0.500000
vt 0.314453 0.500000
vt 0.314453 0.500000
vt 0.314453 0.500000
vt 0.314453 0.500000
vt 0.314453 0.500000
vt 0.314453 0.500000
vt 0.314453 0.500000
vt 0.314453 0.500000
vt 0.314453 0.500000
vt 0.314453 0.500000
vt 0.314453 0.500000
vt 0.314453 0.500000
vt 0.314453 0.500000
vt 0.314453 0.500000
vt 0.314453 0.500000
vt 0.314453 0.500000
vt 0.314453 0.500000
vt 0.314453 0.500000
vt 0.314453 0.500000
vt 0.314453 0.500000
vt 0.314453 0.500000
vt 0.314453 0.500000
vt 0.314453 0.500000
vt 0.314453 0.500000
vt 0.314453 0.500000
vt 0.314453 0.500000
vt 0.314453 0.500000
vn -1.0000 0.0000 0.0000
vn 1.0000 -0.0000 0.0000
vn 0.0000 -0.0000 1.0000
vn 0.0000 0.0000 -1.0000
vn 0.0000 -1.0000 -0.0000
vn 0.0000 1.0000 0.0000
usemtl palette.002
s 1
f 1/1/1 2/2/1 3/3/1
f 4/4/1 2/2/1 1/1/1
f 5/5/1 1/1/1 3/3/1
f 6/6/1 1/1/1 5/5/1
f 7/7/1 5/5/1 3/3/1
f 8/8/1 5/5/1 7/7/1
f 9/9/1 7/7/1 3/3/1
f 10/10/1 7/7/1 9/9/1
f 11/11/1 9/9/1 3/3/1
f 12/12/1 9/9/1 11/11/1
f 13/13/1 14/14/1 15/15/1
f 16/16/1 14/14/1 13/13/1
f 17/17/1 11/11/1 3/3/1
f 18/18/1 11/11/1 17/17/1
f 19/19/1 14/14/1 16/16/1
f 20/20/1 14/14/1 19/19/1
f 21/21/2 22/22/2 23/23/2
f 23/23/2 22/22/2 24/24/2
f 21/21/2 23/23/2 25/25/2
f 25/25/2 23/23/2 26/26/2
f 21/21/2 25/25/2 27/27/2
f 27/27/2 25/25/2 28/28/2
f 21/21/2 27/27/2 29/29/2
f 29/29/2 27/27/2 30/30/2
f 21/21/2 29/29/2 31/31/2
f 31/31/2 29/29/2 32/32/2
f 33/33/2 34/34/2 35/35/2
f 35/35/2 34/34/2 36/36/2
f 21/21/2 31/31/2 37/37/2
f 37/37/2 31/31/2 38/38/2
f 36/36/2 34/34/2 39/39/2
f 39/39/2 34/34/2 40/40/2
f 41/41/3 42/42/3 43/43/3
f 44/44/3 42/42/3 41/41/3
f 45/45/3 46/46/3 47/47/3
f 48/48/3 46/46/3 45/45/3
f 49/49/3 50/50/3 51/51/3
f 52/52/3 50/50/3 49/49/3
f 53/53/4 54/54/4 55/55/4
f 55/55/4 54/54/4 56/56/4
f 57/57/4 58/58/4 59/59/4
f 59/59/4 58/58/4 60/60/4
f 61/61/4 62/62/4 63/63/4
f 63/63/4 62/62/4 64/64/4
f 65/65/4 66/66/4 67/67/4
f 67/67/4 66/66/4 68/68/4
f 69/69/4 70/70/4 71/71/4
f 71/71/4 70/70/4 72/72/4
f 73/73/4 74/74/4 75/75/4
f 75/75/4 74/74/4 76/76/4
f 77/77/4 78/78/4 79/79/4
f 79/79/4 78/78/4 80/80/4
f 81/81/5 82/82/5 83/83/5
f 84/84/5 82/82/5 81/81/5
f 85/85/5 86/86/5 87/87/5
f 88/88/5 86/86/5 85/85/5
f 89/89/6 90/90/6 91/91/6
f 91/91/6 90/90/6 92/92/6
f 93/93/6 94/94/6 95/95/6
f 95/95/6 94/94/6 96/96/6
f 97/97/6 98/98/6 99/99/6
f 99/99/6 98/98/6 100/100/6
f 101/101/6 102/102/6 103/103/6
f 103/103/6 102/102/6 104/104/6
f 105/105/6 106/106/6 107/107/6
f 107/107/6 106/106/6 108/108/6
f 109/109/6 110/110/6 111/111/6
f 111/111/6 110/110/6 112/112/6
f 113/113/6 114/114/6 115/115/6
f 115/115/6 114/114/6 116/116/6
f 117/117/6 118/118/6 119/119/6
f 119/119/6 118/118/6 120/120/6
