# Blender v2.93.0 OBJ File: 'Jeep.blend'
# www.blender.org
mtllib WindowTrunk.mtl
o WindowTrunk_JeepV2-2
v -2.000000 -0.591044 0.300000
v -2.000000 -0.791044 0.200000
v -2.000000 -0.791044 0.300000
v -2.000000 -0.591044 0.200000
v -2.000000 -0.291044 0.200000
v -2.000000 -0.591044 0.100000
v -2.000000 -0.291044 0.100000
v -2.000000 0.008956 0.100000
v -2.000000 -0.291044 -0.000000
v -2.000000 0.008956 0.000000
v -2.000000 0.308956 0.000000
v -2.000000 0.008956 -0.100000
v -2.000000 0.308956 -0.100000
v -2.000000 0.608956 -0.100000
v -2.000000 0.308956 -0.200000
v -2.000000 0.608956 -0.200000
v -2.000000 0.708956 -0.200000
v -2.000000 0.608956 -0.300000
v -2.000000 0.708956 -0.300000
v 2.000000 -0.791044 0.300000
v 2.000000 -0.791044 0.200000
v 2.000000 -0.591044 0.300000
v 2.000000 -0.591044 0.200000
v 2.000000 -0.591044 0.100000
v 2.000000 -0.291044 0.200000
v 2.000000 -0.291044 0.100000
v 2.000000 -0.291044 -0.000000
v 2.000000 0.008956 0.100000
v 2.000000 0.008956 0.000000
v 2.000000 0.008956 -0.100000
v 2.000000 0.308956 0.000000
v 2.000000 0.308956 -0.100000
v 2.000000 0.308956 -0.200000
v 2.000000 0.608956 -0.100000
v 2.000000 0.608956 -0.200000
v 2.000000 0.608956 -0.300000
v 2.000000 0.708956 -0.200000
v 2.000000 0.708956 -0.300000
v 2.000000 -0.791044 0.300000
v -2.000000 -0.591044 0.300000
v -2.000000 -0.791044 0.300000
v 2.000000 -0.591044 0.300000
v 2.000000 -0.591044 0.200000
v -2.000000 -0.291044 0.200000
v -2.000000 -0.591044 0.200000
v 2.000000 -0.291044 0.200000
v 2.000000 -0.291044 0.100000
v -2.000000 0.008956 0.100000
v -2.000000 -0.291044 0.100000
v 2.000000 0.008956 0.100000
v 2.000000 0.008956 0.000000
v -2.000000 0.308956 0.000000
v -2.000000 0.008956 0.000000
v 2.000000 0.308956 0.000000
v 2.000000 0.308956 -0.100000
v -2.000000 0.608956 -0.100000
v -2.000000 0.308956 -0.100000
v 2.000000 0.608956 -0.100000
v 2.000000 0.608956 -0.200000
v -2.000000 0.708956 -0.200000
v -2.000000 0.608956 -0.200000
v 2.000000 0.708956 -0.200000
v -2.000000 -0.791044 0.200000
v -2.000000 -0.591044 0.200000
v 2.000000 -0.791044 0.200000
v 2.000000 -0.591044 0.200000
v -2.000000 -0.591044 0.100000
v -2.000000 -0.291044 0.100000
v 2.000000 -0.591044 0.100000
v 2.000000 -0.291044 0.100000
v -2.000000 -0.291044 -0.000000
v -2.000000 0.008956 0.000000
v 2.000000 -0.291044 -0.000000
v 2.000000 0.008956 0.000000
v -2.000000 0.008956 -0.100000
v -2.000000 0.308956 -0.100000
v 2.000000 0.008956 -0.100000
v 2.000000 0.308956 -0.100000
v -2.000000 0.308956 -0.200000
v -2.000000 0.608956 -0.200000
v 2.000000 0.308956 -0.200000
v 2.000000 0.608956 -0.200000
v -2.000000 0.608956 -0.300000
v -2.000000 0.708956 -0.300000
v 2.000000 0.608956 -0.300000
v 2.000000 0.708956 -0.300000
v -2.000000 -0.791044 0.200000
v 2.000000 -0.791044 0.300000
v -2.000000 -0.791044 0.300000
v 2.000000 -0.791044 0.200000
v -2.000000 -0.591044 0.100000
v 2.000000 -0.591044 0.200000
v -2.000000 -0.591044 0.200000
v 2.000000 -0.591044 0.100000
v -2.000000 -0.291044 -0.000000
v 2.000000 -0.291044 0.100000
v -2.000000 -0.291044 0.100000
v 2.000000 -0.291044 -0.000000
v -2.000000 0.008956 -0.100000
v 2.000000 0.008956 0.000000
v -2.000000 0.008956 0.000000
v 2.000000 0.008956 -0.100000
v -2.000000 0.308956 -0.200000
v 2.000000 0.308956 -0.100000
v -2.000000 0.308956 -0.100000
v 2.000000 0.308956 -0.200000
v -2.000000 0.608956 -0.300000
v 2.000000 0.608956 -0.200000
v -2.000000 0.608956 -0.200000
v 2.000000 0.608956 -0.300000
v -2.000000 -0.591044 0.300000
v 2.000000 -0.591044 0.300000
v -2.000000 -0.591044 0.200000
v 2.000000 -0.591044 0.200000
v -2.000000 -0.291044 0.200000
v 2.000000 -0.291044 0.200000
v -2.000000 -0.291044 0.100000
v 2.000000 -0.291044 0.100000
v -2.000000 0.008956 0.100000
v 2.000000 0.008956 0.100000
v -2.000000 0.008956 0.000000
v 2.000000 0.008956 0.000000
v -2.000000 0.308956 0.000000
v 2.000000 0.308956 0.000000
v -2.000000 0.308956 -0.100000
v 2.000000 0.308956 -0.100000
v -2.000000 0.608956 -0.100000
v 2.000000 0.608956 -0.100000
v -2.000000 0.608956 -0.200000
v 2.000000 0.608956 -0.200000
v -2.000000 0.708956 -0.200000
v 2.000000 0.708956 -0.200000
v -2.000000 0.708956 -0.300000
v 2.000000 0.708956 -0.300000
vt 0.314453 0.500000
vt 0.314453 0.500000
vt 0.314453 0.500000
vt 0.314453 0.500000
vt 0.314453 0.500000
vt 0.314453 0.500000
vt 0.314453 0.500000
vt 0.314453 0.500000
vt 0.314453 0.500000
vt 0.314453 0.500000
vt 0.314453 0.500000
vt 0.314453 0.500000
vt 0.314453 0.500000
vt 0.314453 0.500000
vt 0.314453 0.500000
vt 0.314453 0.500000
vt 0.314453 0.500000
vt 0.314453 0.500000
vt 0.314453 0.500000
vt 0.314453 0.500000
vt 0.314453 0.500000
vt 0.314453 0.500000
vt 0.314453 0.500000
vt 0.314453 0.500000
vt 0.314453 0.500000
vt 0.314453 0.500000
vt 0.314453 0.500000
vt 0.314453 0.500000
vt 0.314453 0.500000
vt 0.314453 0.500000
vt 0.314453 0.500000
vt 0.314453 0.500000
vt 0.314453 0.500000
vt 0.314453 0.500000
vt 0.314453 0.500000
vt 0.314453 0.500000
vt 0.314453 0.500000
vt 0.314453 0.500000
vt 0.314453 0.500000
vt 0.314453 0.500000
vt 0.314453 0.500000
vt 0.314453 0.500000
vt 0.314453 0.500000
vt 0.314453 0.500000
vt 0.314453 0.500000
vt 0.314453 0.500000
vt 0.314453 0.500000
vt 0.314453 0.500000
vt 0.314453 0.500000
vt 0.314453 0.500000
vt 0.314453 0.500000
vt 0.314453 0.500000
vt 0.314453 0.500000
vt 0.314453 0.500000
vt 0.314453 0.500000
vt 0.314453 0.500000
vt 0.314453 0.500000
vt 0.314453 0.500000
vt 0.314453 0.500000
vt 0.314453 0.500000
vt 0.314453 0.500000
vt 0.314453 0.500000
vt 0.314453 0.500000
vt 0.314453 0.500000
vt 0.314453 0.500000
vt 0.314453 0.500000
vt 0.314453 0.500000
vt 0.314453 0.500000
vt 0.314453 0.500000
vt 0.314453 0.500000
vt 0.314453 0.500000
vt 0.314453 0.500000
vt 0.314453 0.500000
vt 0.314453 0.500000
vt 0.314453 0.500000
vt 0.314453 0.500000
vt 0.314453 0.500000
vt 0.314453 0.500000
vt 0.314453 0.500000
vt 0.314453 0.500000
vt 0.314453 0.500000
vt 0.314453 0.500000
vt 0.314453 0.500000
vt 0.314453 0.500000
vt 0.314453 0.500000
vt 0.314453 0.500000
vt 0.314453 0.500000
vt 0.314453 0.500000
vt 0.314453 0.500000
vt 0.314453 0.500000
vt 0.314453 0.500000
vt 0.314453 0.500000
vt 0.314453 0.500000
vt 0.314453 0.500000
vt 0.314453 0.500000
vt 0.314453 0.500000
vt 0.314453 0.500000
vt 0.314453 0.500000
vt 0.314453 0.500000
vt 0.314453 0.500000
vt 0.314453 0.500000
vt 0.314453 0.500000
vt 0.314453 0.500000
vt 0.314453 0.500000
vt 0.314453 0.500000
vt 0.314453 0.500000
vt 0.314453 0.500000
vt 0.314453 0.500000
vt 0.314453 0.500000
vt 0.314453 0.500000
vt 0.314453 0.500000
vt 0.314453 0.500000
vt 0.314453 0.500000
vt 0.314453 0.500000
vt 0.314453 0.500000
vt 0.314453 0.500000
vt 0.314453 0.500000
vt 0.314453 0.500000
vt 0.314453 0.500000
vt 0.314453 0.500000
vt 0.314453 0.500000
vt 0.314453 0.500000
vt 0.314453 0.500000
vt 0.314453 0.500000
vt 0.314453 0.500000
vt 0.314453 0.500000
vt 0.314453 0.500000
vt 0.314453 0.500000
vt 0.314453 0.500000
vt 0.314453 0.500000
vt 0.314453 0.500000
vt 0.314453 0.500000
vt 0.314453 0.500000
vt 0.314453 0.500000
vn -1.0000 0.0000 0.0000
vn 1.0000 0.0000 0.0000
vn 0.0000 -0.0000 1.0000
vn 0.0000 0.0000 -1.0000
vn 0.0000 -1.0000 0.0000
vn 0.0000 1.0000 0.0000
usemtl palette.003
s 1
f 1/1/1 2/2/1 3/3/1
f 4/4/1 2/2/1 1/1/1
f 5/5/1 6/6/1 4/4/1
f 7/7/1 6/6/1 5/5/1
f 8/8/1 9/9/1 7/7/1
f 10/10/1 9/9/1 8/8/1
f 11/11/1 12/12/1 10/10/1
f 13/13/1 12/12/1 11/11/1
f 14/14/1 15/15/1 13/13/1
f 16/16/1 15/15/1 14/14/1
f 17/17/1 18/18/1 16/16/1
f 19/19/1 18/18/1 17/17/1
f 20/20/2 21/21/2 22/22/2
f 22/22/2 21/21/2 23/23/2
f 23/23/2 24/24/2 25/25/2
f 25/25/2 24/24/2 26/26/2
f 26/26/2 27/27/2 28/28/2
f 28/28/2 27/27/2 29/29/2
f 29/29/2 30/30/2 31/31/2
f 31/31/2 30/30/2 32/32/2
f 32/32/2 33/33/2 34/34/2
f 34/34/2 33/33/2 35/35/2
f 35/35/2 36/36/2 37/37/2
f 37/37/2 36/36/2 38/38/2
f 39/39/3 40/40/3 41/41/3
f 42/42/3 40/40/3 39/39/3
f 43/43/3 44/44/3 45/45/3
f 46/46/3 44/44/3 43/43/3
f 47/47/3 48/48/3 49/49/3
f 50/50/3 48/48/3 47/47/3
f 51/51/3 52/52/3 53/53/3
f 54/54/3 52/52/3 51/51/3
f 55/55/3 56/56/3 57/57/3
f 58/58/3 56/56/3 55/55/3
f 59/59/3 60/60/3 61/61/3
f 62/62/3 60/60/3 59/59/3
f 63/63/4 64/64/4 65/65/4
f 65/65/4 64/64/4 66/66/4
f 67/67/4 68/68/4 69/69/4
f 69/69/4 68/68/4 70/70/4
f 71/71/4 72/72/4 73/73/4
f 73/73/4 72/72/4 74/74/4
f 75/75/4 76/76/4 77/77/4
f 77/77/4 76/76/4 78/78/4
f 79/79/4 80/80/4 81/81/4
f 81/81/4 80/80/4 82/82/4
f 83/83/4 84/84/4 85/85/4
f 85/85/4 84/84/4 86/86/4
f 87/87/5 88/88/5 89/89/5
f 90/90/5 88/88/5 87/87/5
f 91/91/5 92/92/5 93/93/5
f 94/94/5 92/92/5 91/91/5
f 95/95/5 96/96/5 97/97/5
f 98/98/5 96/96/5 95/95/5
f 99/99/5 100/100/5 101/101/5
f 102/102/5 100/100/5 99/99/5
f 103/103/5 104/104/5 105/105/5
f 106/106/5 104/104/5 103/103/5
f 107/107/5 108/108/5 109/109/5
f 110/110/5 108/108/5 107/107/5
f 111/111/6 112/112/6 113/113/6
f 113/113/6 112/112/6 114/114/6
f 115/115/6 116/116/6 117/117/6
f 117/117/6 116/116/6 118/118/6
f 119/119/6 120/120/6 121/121/6
f 121/121/6 120/120/6 122/122/6
f 123/123/6 124/124/6 125/125/6
f 125/125/6 124/124/6 126/126/6
f 127/127/6 128/128/6 129/129/6
f 129/129/6 128/128/6 130/130/6
f 131/131/6 132/132/6 133/133/6
f 133/133/6 132/132/6 134/134/6
